<svg xmlns="http://www.w3.org/2000/svg" viewBox="0 0 64 64"><path d="M50.68,44.1l-11-2.47a3.52,3.52,0,0,0-2.85.6l-1.4,1a3.51,3.51,0,0,0-1.13,1.4l-.08.19A2.46,2.46,0,0,1,31,46.11a2.42,2.42,0,0,1-1.25-1.25l-.09-.19a3.41,3.41,0,0,0-1.12-1.4l-1.4-1a3.53,3.53,0,0,0-2.85-.6l-11,2.47a.53.53,0,0,0-.41.51v6a.52.52,0,0,0,.52.52H50.56a.52.52,0,0,0,.52-.52h0v-6A.53.53,0,0,0,50.68,44.1ZM50,50H14V45l10.56-2.38a2.45,2.45,0,0,1,2,.42l1.4,1a2.42,2.42,0,0,1,.79,1l.09.19a3.5,3.5,0,0,0,6.4,0l.08-.19a2.53,2.53,0,0,1,.79-1l1.4-1a2.45,2.45,0,0,1,2-.42L50,45Z" style="fill:#e85451"/><circle cx="30.27" cy="39.12" r="0.97" style="fill:#e85451"/><circle cx="33.45" cy="40.69" r="0.97" style="fill:#e85451"/><path d="M31.86,42.44a1,1,0,1,0,1,1,1,1,0,0,0-1-1Z" style="fill:#e85451"/><path d="M32.67,30.77v1.89a.53.53,0,0,0,1,0V30.77l1.52-1.53a3.2,3.2,0,0,0,0-4.53L33.56,23a.53.53,0,0,0-.74,0l-1.67,1.67a3.2,3.2,0,0,0,0,4.53Zm-.78-5.32,1.3-1.3,1.3,1.3a2.17,2.17,0,0,1,0,3.06l-.78.78V26.52a.52.52,0,0,0-.53-.52.52.52,0,0,0-.52.52h0v2.77l-.78-.78A2.16,2.16,0,0,1,31.89,25.45Z" style="fill:#e85451"/><path d="M18.34,30.71l1,.56a3.62,3.62,0,0,1,1.34,1.35,4.84,4.84,0,0,0,1.74,1.74,3.55,3.55,0,0,1,1.36,1.36h0a4.69,4.69,0,0,0,1.74,1.74,3.66,3.66,0,0,1,.77.59.52.52,0,0,0,.72,0A7,7,0,0,1,36.43,38a.51.51,0,0,0,.68,0A50.93,50.93,0,0,0,45,29.72l1-1.35,2.19-2.19a.52.52,0,0,0,0-.73.31.31,0,0,0-.11-.09l-1-.56a3.67,3.67,0,0,1-1.35-1.36A4.63,4.63,0,0,0,44,21.71h0a3.64,3.64,0,0,1-1.35-1.35,4.64,4.64,0,0,0-1.75-1.74,3.64,3.64,0,0,1-1.35-1.35,4.54,4.54,0,0,0-1.74-1.74,3.67,3.67,0,0,1-1.35-1.36l-.56-1a.51.51,0,0,0-.71-.19l-.11.08-2.19,2.19-1.35,1A51.2,51.2,0,0,0,21.43,26.35l-1,1.35-2.19,2.18a.53.53,0,0,0,0,.74l.11.09ZM22.26,27a50.26,50.26,0,0,1,9.88-9.88l1-.76L44.88,28.08l-.76,1a50.39,50.39,0,0,1-7.34,7.83,8,8,0,0,0-7.68-1.33L21.51,28Zm-2.42,3.38-.39-.22Z" style="fill:#e85451"/></svg>