<svg width="27" height="27" viewBox="0 0 27 27" fill="none" xmlns="http://www.w3.org/2000/svg">
<path d="M25.2206 14.9738H5.52482V5.7459C5.52387 5.39838 5.59189 5.05413 5.72495 4.73307C5.85801 4.41201 6.05346 4.12051 6.29998 3.87546L6.3205 3.85495C6.70686 3.46935 7.2029 3.21238 7.74086 3.11914C8.27882 3.02589 8.83247 3.10093 9.32616 3.33399C8.85991 4.10882 8.66611 5.01717 8.77557 5.9147C8.88502 6.81224 9.29145 7.64746 9.93027 8.28766L10.492 8.84907L9.45808 9.88249L10.6186 11.0424L11.6525 10.0091L17.3811 4.28333L18.415 3.24997L17.2544 2.08997L16.2205 3.12334L15.6588 2.56193C14.9863 1.89164 14.0998 1.47845 13.1539 1.39436C12.2079 1.31027 11.2623 1.56062 10.4821 2.10176C9.65926 1.5824 8.68419 1.35818 7.71703 1.46595C6.74987 1.57372 5.84815 2.00707 5.15999 2.69481L5.13947 2.71531C4.74004 3.11237 4.42336 3.58466 4.20777 4.10486C3.99219 4.62506 3.88197 5.18283 3.8835 5.7459V14.9738H2.24219V16.6143H3.8835V18.1881C3.88347 18.3204 3.90481 18.4517 3.94669 18.5772L5.47353 23.1552C5.55501 23.4003 5.71169 23.6135 5.9213 23.7646C6.13092 23.9156 6.38282 23.9968 6.64122 23.9965H7.30288L6.70452 26.0472H8.41421L9.01262 23.9965H19.6863L20.3018 26.0472H22.0149L21.3994 23.9965H22.4627C22.7211 23.9968 22.9731 23.9156 23.1827 23.7646C23.3924 23.6136 23.5491 23.4004 23.6306 23.1552L25.1573 18.5772C25.1992 18.4517 25.2206 18.3204 25.2206 18.1881V16.6143H26.8619V14.9738H25.2206ZM11.0909 3.72192C11.5431 3.27094 12.1558 3.01767 12.7946 3.01767C13.4334 3.01767 14.0461 3.27094 14.4983 3.72192L15.0598 4.28333L11.6526 7.68887L11.0909 7.12756C10.6398 6.67559 10.3864 6.0632 10.3864 5.42474C10.3864 4.78628 10.6398 4.17389 11.0909 3.72192ZM23.5793 18.1215L22.1672 22.356H6.93697L5.52482 18.1215V16.6143H23.5793V18.1215Z" fill="#0984E3"/>
</svg>
