<svg width="36" height="36" viewBox="0 0 36 36" fill="none" xmlns="http://www.w3.org/2000/svg">
<path d="M23.9429 5.95703C25.0533 5.95686 26.1222 6.37905 26.9327 7.13798C27.7433 7.8969 28.2349 8.93572 28.3077 10.0437L28.3165 10.3306V14.7917C29.2539 14.9835 30.1026 15.4772 30.7327 16.1973C31.3627 16.9174 31.7393 17.8241 31.8049 18.7787L31.8154 19.0779V29.5746C31.8158 29.7931 31.7343 30.004 31.587 30.1655C31.4398 30.327 31.2374 30.4276 31.0197 30.4473C30.802 30.4671 30.5848 30.4046 30.4108 30.2722C30.2369 30.1398 30.1189 29.9471 30.0799 29.732L30.0659 29.5746V25.2009H5.57367V29.5746C5.57407 29.7931 5.49262 30.004 5.34535 30.1655C5.19808 30.327 4.99567 30.4276 4.77798 30.4473C4.56029 30.4671 4.34309 30.4046 4.16915 30.2722C3.99522 30.1398 3.87716 29.9471 3.83821 29.732L3.82422 29.5746V19.0779C3.82401 18.0696 4.17217 17.0923 4.80976 16.3112C5.44736 15.5302 6.33523 14.9934 7.32311 14.7917V10.3306C7.32294 9.22024 7.74513 8.15134 8.50406 7.34076C9.26298 6.53019 10.3018 6.03862 11.4098 5.96578L11.6967 5.95703H23.9429ZM27.4417 16.4537H8.19783C7.54577 16.4537 6.91706 16.6965 6.4342 17.1347C5.95135 17.5729 5.64894 18.1752 5.58591 18.8242L5.57367 19.0779V23.4515H30.0659V19.0779C30.0659 18.4258 29.8232 17.7971 29.3849 17.3142C28.9467 16.8314 28.3444 16.529 27.6954 16.466L27.4417 16.4537ZM23.9429 7.70648H11.6967C11.0444 7.70651 10.4154 7.94951 9.93255 8.38809C9.44966 8.82668 9.14743 9.4294 9.0848 10.0787L9.07256 10.3306V14.7043H10.822V13.8295C10.822 13.5975 10.9142 13.3751 11.0782 13.211C11.2422 13.047 11.4647 12.9548 11.6967 12.9548H16.0703C16.3023 12.9548 16.5248 13.047 16.6889 13.211C16.8529 13.3751 16.9451 13.5975 16.9451 13.8295V14.7043H18.6945V13.8295C18.6945 13.5975 18.7867 13.3751 18.9507 13.211C19.1148 13.047 19.3372 12.9548 19.5692 12.9548H23.9429C24.1748 12.9548 24.3973 13.047 24.5614 13.211C24.7254 13.3751 24.8176 13.5975 24.8176 13.8295V14.7043H26.567V10.3306C26.567 9.67858 26.3243 9.04987 25.8861 8.56702C25.4478 8.08416 24.8455 7.78176 24.1965 7.71872L23.9429 7.70648Z" fill="#0984E3"/>
</svg>
