<svg xmlns="http://www.w3.org/2000/svg" viewBox="0 0 64 64"><rect x="30" y="19.5" width="4" height="5" style="fill:#0984E3"/><rect x="30" y="29.5" width="4" height="5" style="fill:#0984E3"/><rect x="38" y="19.5" width="4" height="5" style="fill:#0984E3"/><rect x="38" y="29.5" width="4" height="5" style="fill:#0984E3"/><rect x="22" y="19.5" width="4" height="5" style="fill:#0984E3"/><rect x="22" y="29.5" width="4" height="5" style="fill:#0984E3"/><path d="M48.54,49.78H45.73V13.88a.34.34,0,0,0-.34-.34H18.61a.34.34,0,0,0-.34.34v35.9H15.46a.34.34,0,1,0,0,.68H48.54a.34.34,0,1,0,0-.68Zm-3.48,0H36.28V42.24a.34.34,0,0,0-.34-.34H28.06a.34.34,0,0,0-.34.34v7.54H18.94V14.22H45.06Z" style="fill:#0984E3"/></svg>