<svg xmlns="http://www.w3.org/2000/svg" viewBox="0 0 64 64"><path d="M17.75,25.66a4.37,4.37,0,0,0,1.3.41l.34.05V38.86a.49.49,0,0,0,.48.48H44.38a.48.48,0,0,0,.48-.48V26.1l.32-.07c1.4-.3,2.24-1.09,2.24-2.11a.77.77,0,0,0,0-.15L44.6,15a.46.46,0,0,0-.45-.33H19.86a.46.46,0,0,0-.45.33l-2.82,8.79a.49.49,0,0,0,0,.13A2,2,0,0,0,17.75,25.66ZM31.52,38.38H26.33V30.55h5.19Zm6.16,0h-5.2V30.55h5.2Zm6.14-22.76L46.48,24l0,.12C46.23,24.86,45,25.2,44,25.2h0a4.52,4.52,0,0,1-1.63-.29c-.76-.32-.87-.76-.87-1v-.14l-1.57-8.16Zm-4.92,0L40.5,24V24c-.14.8-1.4,1.16-2.51,1.16s-2.51-.45-2.51-1.28L35,15.61Zm-8.87,0H34l.53,8.3c0,.86-1.3,1.29-2.51,1.29s-2.46-.43-2.5-1.24Zm-.3,10.07a5.14,5.14,0,0,0,2.26.49,4.43,4.43,0,0,0,2.76-.82l.25-.18.24.2a3.37,3.37,0,0,0,.46.31,5.18,5.18,0,0,0,2.27.49,4.48,4.48,0,0,0,2.76-.81l.24-.18.24.19a3.46,3.46,0,0,0,.47.31,4.81,4.81,0,0,0,1.84.47h.38V38.39H38.63V30.07a.48.48,0,0,0-.47-.48H25.85a.48.48,0,0,0-.48.48v8.31h-5V26.14l.37,0a4,4,0,0,0,2.08-.77l.25-.18.24.2a3.7,3.7,0,0,0,.46.31,5.15,5.15,0,0,0,2.27.49,4.43,4.43,0,0,0,2.76-.82l.25-.18.23.2A2.94,2.94,0,0,0,29.73,25.68ZM29.06,15.6l-.52,8.29c0,.86-1.3,1.31-2.51,1.31s-2.37-.36-2.51-1.16V24l1.6-8.37Zm-8.85,0h3.95l-1.61,8.22h0v.07c0,.86-1.34,1.29-2.52,1.3s-2.27-.33-2.48-1.06l0-.12Z" style="fill:#0984E3"/><rect x="33.28" y="31.35" width="3.59" height="0.3" style="fill:#0984E3"/><rect x="27.13" y="31.35" width="3.59" height="0.3" style="fill:#0984E3"/><path d="M55.41,45.36l-9.75-9.51V37l8.49,8.28H9.83l8.76-8.79V35.33l-10,10a.4.4,0,0,0-.08.43.41.41,0,0,0,.07.11v3.84a.4.4,0,0,0,.4.4H55a.4.4,0,0,0,.4-.4V46a.37.37,0,0,0,.13-.17A.4.4,0,0,0,55.41,45.36Zm-.84,4H9.37v-3.2h45.2Z" style="fill:#0984E3"/><rect x="39.43" y="34.75" width="3.67" height="0.8" style="fill:#0984E3"/></svg>