<svg id="Layer_1" data-name="Layer 1" xmlns="http://www.w3.org/2000/svg" viewBox="0 0 36 36"><defs><style>.cls-1{fill:#e85451;}</style></defs><path class="cls-1" d="M27.81,12.77a1,1,0,0,0-.36-.45,1.38,1.38,0,0,0-.58-.18H21.38L27.24,2.6a1,1,0,0,0,.16-.54,1,1,0,0,0-.15-.54,1,1,0,0,0-.39-.38A1,1,0,0,0,26.33,1H17.69a1.27,1.27,0,0,0-.54.14,1.1,1.1,0,0,0-.41.42L8.66,18.22a1,1,0,0,0-.16.55,1.07,1.07,0,0,0,.17.56,1.19,1.19,0,0,0,.37.34,1.1,1.1,0,0,0,.53.15H14.4L8.61,34a1.15,1.15,0,0,0,0,.71,1.14,1.14,0,0,0,.43.56.94.94,0,0,0,.45.14h.08a1.11,1.11,0,0,0,.83-.35l17.33-21.2a1.07,1.07,0,0,0,.19-.54A1.1,1.1,0,0,0,27.81,12.77Zm-11,5.33a1.2,1.2,0,0,0-.81-.39H11.24l7.07-14.6h6.15l-5.91,9.54a1,1,0,0,0-.16.55,1.06,1.06,0,0,0,.15.53,1.15,1.15,0,0,0,.4.39,1,1,0,0,0,.52.13h5.22L13.17,28.31l3.74-9.19a1.06,1.06,0,0,0,.06-.5A1.21,1.21,0,0,0,16.76,18.1Z"/></svg>