<svg xmlns="http://www.w3.org/2000/svg" viewBox="0 0 64 64"><path d="M59.31,42.1V36.59a.68.68,0,0,0-.26-.53l0,0-5.34-3.57L51,26.22a.69.69,0,0,0-.29-.32l-8.26-4.59a.76.76,0,0,0-.33-.08H26.49a.73.73,0,0,0-.33.08L17.9,25.9a.74.74,0,0,0-.3.33l-2.75,6.42a.66.66,0,0,0-.06.27v4.84H12.46V35.93H11.12v1.83H7.87V35.93H6.53v1.83H4.69V39.1H6.53v2.34H4.69v1.33h54A.67.67,0,0,0,59.31,42.1Zm-48.19-.67H7.87V39.1h3.26Zm3.67,0H12.46V39.1h2.33ZM41.93,22.56l5.86,3.26H34.93l-5.86-3.26ZM25.82,41.44H23.48v-6h2.34Zm3.67,0H27.15v-6h2.34Zm7.35,0h-6V34.75a.68.68,0,0,0-.67-.67H22.81a.68.68,0,0,0-.67.67v6.68h-6l0-8.42,2.59-6,7.75-4.3L34.23,27l2.61,6.15ZM35.77,27.16H49.93l2.18,5.09H38Zm6.58,14.27H38.18V34.17L42.35,37Zm-2.64-7.84H52.92l3.51,2.34H43.23Zm12.75,7.84H43.69V37.26h8.77Zm5.5,0H53.79V37.26H58Z" style="fill:#0984E3"/></svg>