<svg xmlns="http://www.w3.org/2000/svg" viewBox="0 0 64 64"><path d="M51.34,34.85V30.32a.5.5,0,0,0-.19-.43h0L47.31,27l-1.92-5.13a.5.5,0,0,0-.19-.24l-5.91-3.76a.32.32,0,0,0-.18-.06H28a.33.33,0,0,0-.19.06l-5.91,3.76a.48.48,0,0,0-.18.24l-2,5.27a.52.52,0,0,0,0,.21v4H17.85V29.81H17v1.51H14.57V29.81h-.82v1.51H12.44v1h1.31v2H12.44v1H50.93A.46.46,0,0,0,51.34,34.85ZM17,34.33H14.57l0-2H17Zm2.62,0H17.85v-2h1.81ZM39,18.78l4.32,2.76H34l-4.33-2.76Zm-3.6,15.55H31V28.81a.46.46,0,0,0-.43-.5H25.32a.46.46,0,0,0-.41.48v5.54H20.47l0-7,1.86-5L28,18.84l5.6,3.56,1.87,5.06Zm-.93-11.79H44.76l1.6,4.26H36.08Zm4.87,11.79H36.24V28.21l3.12,2.39Zm-2.1-6.52h9.62l2.63,2H39.88Zm9.33,6.52H40.18V30.82h6.41v3.51Zm3.93,0H47.39V30.82h3.13Z" style="fill:#0984E3"/><polygon points="46.09 31.71 46.09 31.32 45.68 31.32 46.09 31.71" style="fill:#0984E3"/><polygon points="37.58 29.86 36.74 29.86 36.74 30.66 38.62 30.66 37.58 29.86" style="fill:#0984E3"/><rect x="20.97" y="29.87" width="3.44" height="0.8" style="fill:#0984E3"/><rect x="31.48" y="29.87" width="3.44" height="0.8" style="fill:#0984E3"/><path d="M18.67,30.67h.49v-.8H18.5a.37.37,0,0,0-.15,0v.92h.16Z" style="fill:#0984E3"/><path d="M56.93,41.17l-5.6-5.46a.81.81,0,0,1-.38.12h-.64l5.36,5.22H8.31l5.21-5.22H12.39L7.07,41.17a.4.4,0,0,0-.09.44.44.44,0,0,0,.08.11v4.1a.39.39,0,0,0,.4.4h49a.4.4,0,0,0,.29-.12.41.41,0,0,0,.11-.28v-4A.4.4,0,0,0,57,41.6.38.38,0,0,0,56.93,41.17Zm-.86,4.26H7.86V42H56.07Z" style="fill:#0984E3"/><polygon points="49.4 33.83 47.89 32.35 47.89 33.47 48.26 33.83 49.4 33.83" style="fill:#0984E3"/><polygon points="15.52 33.83 16.52 32.82 15.39 32.82 15.06 33.15 15.06 33.83 15.52 33.83" style="fill:#0984E3"/><rect x="23.6" y="23.83" width="0.81" height="0.91" style="fill:#0984E3"/><rect x="31.48" y="23.83" width="0.81" height="0.91" style="fill:#0984E3"/><rect x="27.54" y="20.8" width="0.81" height="0.91" style="fill:#0984E3"/></svg>