<svg xmlns="http://www.w3.org/2000/svg" viewBox="0 0 24 24"><path d="M5.56,12.38a.76.76,0,0,0,.75.76v.76a.76.76,0,0,0,.76.75H8.59a.76.76,0,0,0,.76-.75v-.76a.76.76,0,0,0,.75-.76v-.76h.76v-.76H10.1v-.75a.75.75,0,0,0-.75-.76h-3a.76.76,0,0,0-.75.76v.75H4.8v.76h.76Zm3,1.52H7.07v-.76H8.59ZM6.31,10.11h3v2.27h-3Z" style="fill:#e85451"/><path d="M21.75,21.83a1.52,1.52,0,0,0-1-.71V15.21A3.41,3.41,0,0,0,23,12V10.86a.76.76,0,0,0-.76-.75h-5.3V9.35h-.76v.76h-.76v-3a.76.76,0,0,1,1.52,0v.76h.76V7.07a1.52,1.52,0,0,0-3-.08v3.12H13.14a.76.76,0,0,0-.76.75V12a3.41,3.41,0,0,0,2.27,3.21v5.91a1.55,1.55,0,0,0-1,.71L12.92,23H7.76l-.54-2.4,1.4-.09a3.19,3.19,0,0,0,3-3.19,1.14,1.14,0,0,0-1.13-1.14H4.36L2.92,8.45a.76.76,0,0,0-.75-.62H1a.78.78,0,0,0-.6.28.77.77,0,0,0-.16.62l1.47,7.85V23H.25v.76H23.37V23h-.93ZM13.14,12V10.86h9.1V12a2.66,2.66,0,0,1-2.66,2.65H15.79A2.65,2.65,0,0,1,13.14,12Zm2.65,3.41h3.79l.38,0V21.1H15.41V15.39l.38,0Zm-1.52,6.81a.78.78,0,0,1,.65-.37h5.53a.78.78,0,0,1,.65.37l.46.77H13.81Zm-3.41-4.91a2.53,2.53,0,0,1,0,.38H2.49v-.76h8a.37.37,0,0,1,.37.38ZM1,8.59H2.18l1.41,7.58H2.41Zm1.46,9.85h8.1a2.46,2.46,0,0,1-2,1.31L5.15,20l0,.76,1.26-.08L7,23H2.48Z" style="fill:#e85451"/><path d="M23,.25H12.38a.76.76,0,0,0-.76.76V7.07a.76.76,0,0,0,.76.76H13.9V7.07H12.38V1H23V7.07H18.44v.76H23a.76.76,0,0,0,.76-.76V1A.76.76,0,0,0,23,.25Z" style="fill:#e85451"/><path d="M14.38,3.93l.54-.53,1.14,1.13-.54.54Z" style="fill:#e85451"/><path d="M15.9,2.42l.53-.54,3,3-.53.54Z" style="fill:#e85451"/><path d="M18.55,2.42l.54-.54L21,3.78l-.53.53Z" style="fill:#e85451"/></svg>