<svg xmlns="http://www.w3.org/2000/svg" viewBox="0 0 24 24"><path d="M11.47,20.05H8.17v-3h3.3Zm-2.57-1h1.83v-1H8.9Z" style="fill:#e85451"/><path d="M11.47,16.88H8.17v-3h3.3Zm-2.57-1h1.83v-1H8.9Z" style="fill:#e85451"/><path d="M15.84,20.05h-3.3v-3h3.3Zm-2.57-1H15.1v-1H13.27Z" style="fill:#e85451"/><path d="M15.84,16.88h-3.3v-3h3.3Zm-2.57-1H15.1v-1H13.27Z" style="fill:#e85451"/><path d="M23.75,8.59,12,2.43.25,8.59l.46.89L3.49,8V21.57h17V8l2.78,1.46ZM7,20.56v-10H17v10Zm12.52,0H18v-11H6v11H4.49V7.5L12,3.57,19.51,7.5Z" style="fill:#e85451"/></svg>