<svg id="Layer_1" data-name="Layer 1" xmlns="http://www.w3.org/2000/svg" viewBox="0 0 24 24"><defs><style>.cls-1{fill:#e85451;}</style></defs><path class="cls-1" d="M16.13.94V8.56h6.2a.69.69,0,0,1,.69.69V12a.69.69,0,0,1-.69.69h-6.2v6.24a.69.69,0,0,1-.69.69H9.25v3.44a.69.69,0,0,1-1.05.59L1.32,19.52A.68.68,0,0,1,1,18.93V.94A.69.69,0,0,1,1.67.25H15.44A.69.69,0,0,1,16.13.94Zm5.51,10.37V9.93h-6.2a.68.68,0,0,1-.69-.68V9.16l-2.2,1.46,2.2,1.47V12a.69.69,0,0,1,.69-.69ZM2.36,18.54l5.51,3.31V5.46L2.36,2.15ZM4.16,1.63,8.91,4.48a.68.68,0,0,1,.34.59V18.24h5.5V13.75L10.93,11.2a.71.71,0,0,1-.31-.58.69.69,0,0,1,.31-.57L14.75,7.5V1.63Z"/></svg>