<svg xmlns="http://www.w3.org/2000/svg" viewBox="0 0 24 24"><path d="M23.69,18.1l-.12-.21,0,.07-.11-.05a.41.41,0,0,0-.31,0c-3.3,1.91-7,1-10.94,0s-8-2-11.72,0a.42.42,0,0,0-.17.56.42.42,0,0,0,.57.17c3.44-1.87,7.35-.88,11.13.07a28.8,28.8,0,0,0,6.73,1.13h.2a9.44,9.44,0,0,0,4.61-1.21.44.44,0,0,0,.2-.25A.45.45,0,0,0,23.69,18.1Z" style="fill:#e85451"/><path d="M.84,15.2h0c3.45-1.87,7.35-.89,11.13.07a28.37,28.37,0,0,0,6.73,1.13h.2a9.4,9.4,0,0,0,4.62-1.21.41.41,0,0,0-.42-.71,8.69,8.69,0,0,1-4.68,1.1L18,14.4a2.6,2.6,0,1,0-.37-3.92A2.58,2.58,0,0,0,17,11.67L16.74,11,17,9l3.09-2a1.6,1.6,0,0,0,.69-2.15l0-.07a1.57,1.57,0,0,0-2.18-.44l0,0L14.43,6.87a.42.42,0,0,0-.19.29l-.76,4.5L8.33,13.58a11.8,11.8,0,0,0-7.86.88.39.39,0,0,0-.2.25.41.41,0,0,0,.57.49ZM17.9,11.55a1.74,1.74,0,0,1,1-.93h0a1.78,1.78,0,1,1-1,.93ZM16.24,8.72,15.91,11a.27.27,0,0,0,0,.2l1.61,4.33a33.64,33.64,0,0,1-5.34-1.06c-.76-.19-1.54-.39-2.33-.56L14,12.34a.39.39,0,0,0,.26-.32L15,7.48l4-2.37A.74.74,0,0,1,19.53,5a.77.77,0,0,1,.51.26l0,0c.17.27.16.71-.39,1.07l-3.26,2.1A.42.42,0,0,0,16.24,8.72Z" style="fill:#e85451"/></svg>