<svg xmlns="http://www.w3.org/2000/svg" viewBox="0 0 24 24"><path d="M23.37,9.83h-12V9.07h.14A.58.58,0,0,0,12,8.5V7.35a.57.57,0,0,0-.57-.57H5.28a.57.57,0,0,0-.57.57v1H4.58A.61.61,0,0,0,4,9v.88H3.7a.41.41,0,0,0,0-.27.39.39,0,0,0-.38-.29H2.82V5.46a1,1,0,0,0,.83-1.08,1.1,1.1,0,0,0-.06-.26l1.77-.91a.12.12,0,0,1,.13,0L7.72,4.49a.67.67,0,0,0,.07.31,1.73,1.73,0,0,0,.35,1.28.51.51,0,0,0,.38.18.47.47,0,0,0,.35-.15L10,5a.47.47,0,0,0,.14-.37.5.5,0,0,0-.18-.34,1.7,1.7,0,0,0-1.24-.36.67.67,0,0,0-.48,0L5.88,2.55a.88.88,0,0,0-.86,0l-2,1a1,1,0,0,0-.73,0A1,1,0,0,0,2.06,5.3v4H1.7a.38.38,0,0,0-.38.38.58.58,0,0,0,0,.18H.63a.38.38,0,0,0-.38.38v11a.38.38,0,0,0,.38.38H12a.38.38,0,0,0,.38-.38V10.59H23v10.6a.39.39,0,0,0,.39.38.38.38,0,0,0,.38-.38v-11A.38.38,0,0,0,23.37,9.83ZM11.61,15.16v5.65H1V15.16ZM2.4,4.48a.24.24,0,0,1,.07-.17.23.23,0,0,1,.17-.07.24.24,0,0,1,.24.24.24.24,0,0,1-.48,0ZM9.86,9.83V9.07h.7v.76Zm-.35.78h2.11v3.8H1V10.59H9.51ZM5.35,9.07H9.09v.76H4.76V9.08h.59Zm.12-1.52h5.8V8.3H5.48ZM8.63,4.74a.29.29,0,0,1,.22-.06.93.93,0,0,1,.29.05l-.56.58A.71.71,0,0,1,8.63,4.74Z" style="fill:#e85451"/><path d="M13.24,14.08a.4.4,0,0,0-.39.39v.88a.39.39,0,0,0,.39.38.38.38,0,0,0,.38-.38v-.88A.39.39,0,0,0,13.24,14.08Z" style="fill:#e85451"/><path d="M6.66,11.31H6a.39.39,0,0,0-.39.38.4.4,0,0,0,.39.39h.66a.39.39,0,0,0,.39-.39A.38.38,0,0,0,6.66,11.31Z" style="fill:#e85451"/><path d="M6.59,16.54H6.06a.38.38,0,1,0,0,.76h.53a.38.38,0,1,0,0-.76Z" style="fill:#e85451"/></svg>