<svg xmlns="http://www.w3.org/2000/svg" viewBox="0 0 24 24"><path d="M16.45,17H9.94a3.71,3.71,0,0,1,0-1.59h6.52a.44.44,0,0,0,.43-.44V4.77a.44.44,0,0,0-.42-.44H.69a.44.44,0,0,0-.43.44V15a.44.44,0,0,0,.43.44H7.21A3.71,3.71,0,0,1,7.2,17H.69a.44.44,0,0,0-.44.44V22a.44.44,0,0,0,.44.43H16.45a.44.44,0,0,0,.44-.43V17.47A.44.44,0,0,0,16.45,17ZM16,5.21v9.36H1.13V5.21ZM9,17H8.1a4.72,4.72,0,0,0,0-1.59H9A4.72,4.72,0,0,0,9,17Zm-.91.88v3.64h-7V17.92ZM9,21.56V17.92h7v3.64Z" style="fill:#e85451"/><path d="M23.31,21.55h-2V19.08h2a.44.44,0,0,0,.44-.43V2a.44.44,0,0,0-.44-.43H18.38A.43.43,0,0,0,18,2V18.64a.44.44,0,0,0,.43.44h2v2.47h-2a.44.44,0,0,0-.44.44.44.44,0,0,0,.44.44h4.93a.44.44,0,0,0,.44-.44A.44.44,0,0,0,23.31,21.55Zm-.44-19.1V18.21H18.82V2.45Z" style="fill:#e85451"/><path d="M20.85,4.33A1.45,1.45,0,1,0,22.3,5.78,1.45,1.45,0,0,0,20.85,4.33Zm.57,1.45a.57.57,0,0,1-.57.57.56.56,0,0,1-.57-.57.57.57,0,0,1,.57-.57A.58.58,0,0,1,21.42,5.78Z" style="fill:#e85451"/><path d="M20.85,13.41a1.45,1.45,0,1,0,1.45,1.45A1.45,1.45,0,0,0,20.85,13.41Zm.57,1.45a.57.57,0,0,1-.57.57.56.56,0,0,1-.57-.57.57.57,0,0,1,.57-.57A.58.58,0,0,1,21.42,14.86Z" style="fill:#e85451"/><path d="M20.85,8.87a1.45,1.45,0,1,0,1.45,1.45A1.45,1.45,0,0,0,20.85,8.87Zm.57,1.45a.57.57,0,0,1-.57.57.56.56,0,0,1-.57-.57.57.57,0,0,1,.57-.57A.58.58,0,0,1,21.42,10.32Z" style="fill:#e85451"/><path d="M7.17,19.09a.65.65,0,1,0,.66.65A.66.66,0,0,0,7.17,19.09Zm0,.93a.29.29,0,0,1,0-.57.29.29,0,1,1,0,.57Z" style="fill:#e85451"/><path d="M10,19.09a.65.65,0,1,0,.65.65A.65.65,0,0,0,10,19.09ZM10,20a.29.29,0,1,1,.28-.28A.29.29,0,0,1,10,20Z" style="fill:#e85451"/></svg>