<svg xmlns="http://www.w3.org/2000/svg" viewBox="0 0 24 24"><path d="M15.68,15.27a.48.48,0,0,0-.42.52h0a3.4,3.4,0,0,1,0,.45,6.93,6.93,0,0,1-.12,1.28,6.58,6.58,0,1,1-8.92-7.37.47.47,0,0,0,.26-.61.47.47,0,0,0-.61-.26A7.51,7.51,0,1,0,16.09,17.7a8,8,0,0,0,.14-1.46,4.93,4.93,0,0,0,0-.55.47.47,0,0,0-.51-.42Z" style="fill:#e85451"/><path d="M22.78,19.37a.47.47,0,0,0-.59-.29h0l-2.39.79-2.66-7.09a.47.47,0,0,0-.44-.3H9.61L9.36,9.66h4.52a.47.47,0,0,0,0-.94H9.27L8.92,4.85A2.32,2.32,0,1,0,8,4.94L8.72,13a.47.47,0,0,0,.46.43h7.2l2.7,7.21a.47.47,0,0,0,.44.3l.15,0L22.49,20A.48.48,0,0,0,22.78,19.37ZM8.25,4a1.41,1.41,0,1,1,1.4-1.4h0A1.4,1.4,0,0,1,8.25,4Z" style="fill:#e85451"/></svg>