<svg xmlns="http://www.w3.org/2000/svg" viewBox="0 0 24 24"><path d="M19,23.75h0a.42.42,0,0,0,.41-.36l.34-2.68a.23.23,0,0,1,.23-.2.43.43,0,0,0,.46-.41l.14-4.78a.22.22,0,0,1,.11-.2,4.87,4.87,0,0,0,2.15-2.86l0,0A2.45,2.45,0,0,0,22,10a2.25,2.25,0,0,0-2.42-.64.22.22,0,0,1-.22,0,.22.22,0,0,1-.09-.21c.48-3.67.07-6.22-1.18-7.39-2.12-2-9.82-2-11.94,0C4.57,3.21,4.66,6.63,5,9.24a.22.22,0,0,1-.1.22.23.23,0,0,1-.24,0A2.2,2.2,0,0,0,2,10a2.46,2.46,0,0,0-.85,2.31A4.89,4.89,0,0,0,3.3,15.12a.22.22,0,0,1,.11.2l.14,4.78a.42.42,0,0,0,.42.41c.11,0,.26.09.27.2l.34,2.68a.43.43,0,0,0,.41.36H6a.41.41,0,0,0,.41-.36l.35-2.68A.24.24,0,0,1,7,20.5a.39.39,0,0,0,.29-.13.25.25,0,0,1,.18-.08h9.05a.21.21,0,0,1,.18.08.41.41,0,0,0,.29.13.26.26,0,0,1,.23.21l.34,2.68a.41.41,0,0,0,.41.36Zm-.27-1.48a.24.24,0,0,1-.47,0l-.19-1.5a.24.24,0,0,1,.05-.18.25.25,0,0,1,.18-.08h.38a.23.23,0,0,1,.18.08.2.2,0,0,1,.06.18Zm-13,0a.23.23,0,0,1-.23.21.25.25,0,0,1-.24-.21l-.19-1.5a.21.21,0,0,1,.06-.18.23.23,0,0,1,.18-.08h.38a.21.21,0,0,1,.17.08.2.2,0,0,1,.06.18Zm.83-2.83a.23.23,0,0,1-.24.23H4.6a.24.24,0,0,1-.24-.23l-.12-4.52A.43.43,0,0,0,4,14.54a4.24,4.24,0,0,1-2-2.36s0,0,0-.06a1.65,1.65,0,0,1,.58-1.53,1.43,1.43,0,0,1,.93-.53,1.44,1.44,0,0,1,1.06.28,1.28,1.28,0,0,1,.26.26l.4.39c.1.1.21.2.31.31a3.66,3.66,0,0,1,1.07,2.6Zm10-.23a.24.24,0,0,1-.24.24H7.64a.24.24,0,0,1-.24-.24v-2A.24.24,0,0,1,7.64,17h8.72a.24.24,0,0,1,.24.24Zm0-3.31a.23.23,0,0,1-.24.23H7.64a.23.23,0,0,1-.24-.23V14.69a.24.24,0,0,1,.24-.24h8.72a.24.24,0,0,1,.24.24Zm0-2.49a.23.23,0,0,1-.23.22H7.62a.24.24,0,0,1-.24-.21,4.5,4.5,0,0,0-1.22-2.64.27.27,0,0,1-.06-.12c-.55-3-.89-6.85.62-8.31,0,0,0,0,0,0C8.61.6,15.68.6,17.55,2.33c1.5,1.39,1.22,5.1.72,8a.26.26,0,0,1-.06.13l-.3.29A4.56,4.56,0,0,0,16.63,13.41Zm1,6.27a.23.23,0,0,1-.23-.24V13.9a3.63,3.63,0,0,1,1.06-2.59l.46-.45.27-.27a1.43,1.43,0,0,1,.94-.52,1.41,1.41,0,0,1,1.05.29,1.88,1.88,0,0,1,.25.24A1.62,1.62,0,0,1,22,12.13a4.24,4.24,0,0,1-2,2.41l-.05,0a.45.45,0,0,0-.23.36l-.12,4.53a.24.24,0,0,1-.24.23Z" style="fill:#e85451"/></svg>