<svg xmlns="http://www.w3.org/2000/svg" viewBox="0 0 24 24"><path d="M8.47,18.74h0v0H6.27a.48.48,0,0,0-.49.48v1.44A.47.47,0,0,0,6,21l1.09.87a.5.5,0,0,0,.31.1.54.54,0,0,0,.3-.1L8.77,21A.46.46,0,0,0,9,20.66V19.22A.48.48,0,0,0,8.47,18.74ZM8,20.42l-.61.48-.6-.48v-.7H8Z" style="fill:#e85451"/><path d="M16.81,13h0l-1.61-.4a1.36,1.36,0,0,1-.12-.12s0,0-.05,0A1.6,1.6,0,0,1,14.8,12c1.88-2.11,2.56-5.93,2.63-6.38V3.93c1.51-.38,2.24-.89,2.24-1.57C19.66.27,12.32.25,12,.25S4.36.27,4.36,2.36c0,.68.73,1.19,2.23,1.57V5.65c0,.17.69,4.2,2.63,6.36a1.31,1.31,0,0,1-.39.61L7.21,13a8.66,8.66,0,0,0-6.5,7.46,1.59,1.59,0,0,0,1,1.64,29.74,29.74,0,0,0,9.67,1.62H12c1.11,0,2.26,0,3.42-.15a26.57,26.57,0,0,0,6.87-1.46,1.6,1.6,0,0,0,1-1.65A8.66,8.66,0,0,0,16.81,13ZM18,21.67v.6c-.68.12-1.37.21-2.06.29v-.89ZM7.57,3.43a23.63,23.63,0,0,1,8.87,0V5.08H7.57Zm9.84-.51A.48.48,0,0,0,17,2.55,24.07,24.07,0,0,0,7,2.55a.48.48,0,0,0-.37.37,2.75,2.75,0,0,1-1.25-.56C5.53,2,7.93,1.23,12,1.23c4.26,0,6.45.82,6.66,1.12A2.7,2.7,0,0,1,17.41,2.92Zm1.06,17.77h-3a.49.49,0,0,0-.48.49v1.47c-.78.06-1.59.09-2.41.1a18.1,18.1,0,0,1,1.12-5.82,2,2,0,0,0,.16-.85v-.71a1.27,1.27,0,0,1,.41-.93l.9-.83,1.46.37a7.68,7.68,0,0,1,5.76,6.62.59.59,0,0,1-.31.59h0l-.07,0a20.65,20.65,0,0,1-3,.88v-.91A.49.49,0,0,0,18.47,20.69ZM16.34,6.06C16,7.7,14.75,12.41,12,12.41S8,7.7,7.67,6.06Zm-6,10.86a18.51,18.51,0,0,1,1.13,5.84H11.3a28.42,28.42,0,0,1-9.23-1.54.6.6,0,0,1-.38-.63A7.7,7.7,0,0,1,7.45,14l1.46-.36.9.82a1.34,1.34,0,0,1,.4.93v.72A2.21,2.21,0,0,0,10.38,16.92Zm.09-3.2-.16-.15h0l-.55-.5a1.92,1.92,0,0,0,.23-.35,3.39,3.39,0,0,0,4,0,2.64,2.64,0,0,0,.23.35l-.71.65a2.26,2.26,0,0,0-.72,1.65v.71a1.19,1.19,0,0,1-.1.49A18.07,18.07,0,0,0,12,19a17.22,17.22,0,0,0-.72-2.42h0a1.34,1.34,0,0,1-.11-.48v-.71A2.22,2.22,0,0,0,10.47,13.72Z" style="fill:#e85451"/></svg>