<svg id="Layer_1" data-name="Layer 1" xmlns="http://www.w3.org/2000/svg" viewBox="0 0 24 24"><defs><style>.cls-1{fill:#e85451;}</style></defs><path class="cls-1" d="M4.22,3.49A1.5,1.5,0,1,0,5.71,2,1.5,1.5,0,0,0,4.22,3.49Zm1.49-.81a.81.81,0,1,1-.81.81A.81.81,0,0,1,5.71,2.68Z"/><path class="cls-1" d="M6.05,1V.59a.34.34,0,1,0-.68,0V1a.34.34,0,1,0,.68,0Z"/><path class="cls-1" d="M5.37,6v.43a.34.34,0,1,0,.68,0V6a.34.34,0,0,0-.68,0Z"/><path class="cls-1" d="M3.9,1.2a.34.34,0,0,0-.48.48l.3.31a.36.36,0,0,0,.49,0,.34.34,0,0,0,0-.48Z"/><path class="cls-1" d="M7.21,5a.34.34,0,0,0,0,.48l.31.31a.34.34,0,0,0,.48,0A.34.34,0,0,0,8,5.3L7.7,5A.34.34,0,0,0,7.21,5Z"/><path class="cls-1" d="M2.81,3.15a.34.34,0,0,0,0,.68h.43a.34.34,0,1,0,0-.68Z"/><path class="cls-1" d="M8.61,3.83a.34.34,0,0,0,0-.68H8.18a.34.34,0,0,0,0,.68Z"/><path class="cls-1" d="M3.72,5l-.3.3a.36.36,0,0,0,0,.49.34.34,0,0,0,.48,0l.31-.31a.34.34,0,0,0,0-.48A.34.34,0,0,0,3.72,5Z"/><path class="cls-1" d="M7.52,1.2l-.31.31a.34.34,0,0,0,0,.48A.36.36,0,0,0,7.7,2L8,1.68A.33.33,0,0,0,8,1.2.34.34,0,0,0,7.52,1.2Z"/><path class="cls-1" d="M6.64,17.32a.34.34,0,0,0-.34.34V18A.34.34,0,1,0,7,18v-.35A.34.34,0,0,0,6.64,17.32Z"/><path class="cls-1" d="M9.6,13.69a.74.74,0,0,0-.74.74v4a.74.74,0,0,0,.74.74h1.6a.74.74,0,0,0,.74-.74v-4a.75.75,0,0,0-.74-.74Zm1.6,4.83H9.6a.06.06,0,0,1-.06-.06V16.79h1.71v1.67A.06.06,0,0,1,11.2,18.52Zm.05-4.09v1.68H9.54V14.43a.06.06,0,0,1,.06,0h1.6A0,0,0,0,1,11.25,14.43Z"/><path class="cls-1" d="M13.5,13.69a.74.74,0,0,0-.74.74v4a.74.74,0,0,0,.74.74h1.6a.74.74,0,0,0,.74-.74v-4a.75.75,0,0,0-.74-.74Zm1.6,4.83H13.5a.06.06,0,0,1-.06-.06V16.79h1.71v1.67A.06.06,0,0,1,15.1,18.52Zm.05-4.09v1.68H13.44V14.43a.06.06,0,0,1,.06,0h1.6A0,0,0,0,1,15.15,14.43Z"/><path class="cls-1" d="M17.4,13.69a.74.74,0,0,0-.74.74v4a.74.74,0,0,0,.74.74H19a.74.74,0,0,0,.74-.74v-4a.75.75,0,0,0-.74-.74ZM19,18.52H17.4a.06.06,0,0,1-.06-.06V16.79h1.71v1.67A.06.06,0,0,1,19,18.52Zm.05-4.09v1.68H17.34V14.43a.06.06,0,0,1,.06,0H19A0,0,0,0,1,19.05,14.43Z"/><path class="cls-1" d="M22.83,21.43H21.45V17.38A.35.35,0,0,0,21.1,17a.34.34,0,0,0-.34.34v4.05H8.14V14.57a.74.74,0,0,0-.74-.74H5a.74.74,0,0,0-.74.74v6.86h-1V12.2H20.76v6.18a.34.34,0,0,0,.34.34.35.35,0,0,0,.35-.34V12.2h.28a.85.85,0,0,0,.84-.85v-.62a.85.85,0,0,0-.84-.85H20.08V6.57a.34.34,0,1,0-.68,0V8.15H17.82a.34.34,0,0,0-.34.34V9.88h-.81V7.65h1.1a.34.34,0,1,0,0-.68h-1.1V4.73h2.6a.6.6,0,0,0,.51-.27.63.63,0,0,0,0-.58,3.85,3.85,0,0,0-3.15-2.21V1.24a.34.34,0,1,0-.68,0v.43a3.85,3.85,0,0,0-3.15,2.21.6.6,0,0,0,.54.85H16V7H14.88a.34.34,0,1,0,0,.68H16V9.88h-.81V8.49a.35.35,0,0,0-.35-.34H13.26V6.57a.35.35,0,0,0-.34-.35.35.35,0,0,0-.35.35V9.88H2.27a.85.85,0,0,0-.84.85v.62a.85.85,0,0,0,.84.85h.28v9.23H1.17a.85.85,0,0,0-.85.85v.62a.85.85,0,0,0,.85.85h10a.34.34,0,0,0,0-.68h-10A.18.18,0,0,1,1,22.9v-.62a.17.17,0,0,1,.17-.16H22.83a.17.17,0,0,1,.17.16v.62a.18.18,0,0,1-.17.17H6.31a.34.34,0,1,0,0,.68H22.83a.85.85,0,0,0,.85-.85v-.62A.85.85,0,0,0,22.83,21.43ZM19.14,4.05H17.87a5.38,5.38,0,0,0-.45-1.52A3.2,3.2,0,0,1,19.14,4.05Zm-3.9-1.52a5.36,5.36,0,0,0-.46,1.52H13.52A3.2,3.2,0,0,1,15.24,2.53Zm1.09-.19c.23,0,.64.55.85,1.71h-1.7C15.69,2.89,16.09,2.34,16.33,2.34Zm1.83,6.49H19.4V9.88H18.16Zm-4.9,0h1.23V9.88H13.26ZM2.11,11.35v-.62a.16.16,0,0,1,.16-.16H21.73a.16.16,0,0,1,.16.16v.62a.17.17,0,0,1-.16.17H2.27A.17.17,0,0,1,2.11,11.35ZM5,21.43V14.57a.06.06,0,0,1,0-.06H7.4a.06.06,0,0,1,.06.06v6.86Z"/></svg>