<svg id="Layer_1" data-name="Layer 1" xmlns="http://www.w3.org/2000/svg" xmlns:xlink="http://www.w3.org/1999/xlink" viewBox="0 0 200 60"><defs><style>.cls-1{fill:#fff;}.cls-2{fill:none;}.cls-3{opacity:0.3;}.cls-4{clip-path:url(#clip-path);}.cls-11,.cls-5,.cls-7{fill:#737678;}.cls-11,.cls-5{stroke:#737678;}.cls-5{stroke-width:0.2px;}.cls-6{clip-path:url(#clip-path-2);}.cls-8{clip-path:url(#clip-path-3);}.cls-9{clip-path:url(#clip-path-4);}.cls-10{mask:url(#mask);}.cls-11{stroke-width:2px;}.cls-12{clip-path:url(#clip-path-5);}.cls-13{clip-path:url(#clip-path-6);}</style><clipPath id="clip-path"><rect class="cls-2" x="45.74" y="1" width="32.25" height="21.73"/></clipPath><clipPath id="clip-path-2"><rect class="cls-2" x="47.84" y="36.8" width="28.74" height="21.73"/></clipPath><clipPath id="clip-path-3"><rect class="cls-2" x="131.26" y="0.34" width="23.13" height="22.43"/></clipPath><clipPath id="clip-path-4"><rect class="cls-2" x="131.96" y="36.14" width="21.03" height="23.13"/></clipPath><mask id="mask" x="176" y="1.33" width="25" height="23.08" maskUnits="userSpaceOnUse"><g id="path-14-inside-1_1610_4826" data-name="path-14-inside-1 1610 4826"><path class="cls-1" d="M200,11.5a2.71,2.71,0,0,0-.79-1.51,2.66,2.66,0,0,0-1.53-.74,1.88,1.88,0,0,0-.34,0V8.08a5.74,5.74,0,0,0-5.74-5.75h-6.14a5.74,5.74,0,0,0-5.74,5.75V9.23a1.88,1.88,0,0,0-.34,0,2.63,2.63,0,0,0-1.53.74,2.67,2.67,0,0,0,1.1,4.49v5.09a1.14,1.14,0,0,0,1.15,1.15V23a.39.39,0,0,0,.11.27.36.36,0,0,0,.27.12h1.15a.38.38,0,0,0,.23-.08.35.35,0,0,0,.14-.2l.68-2.41h11.69l.69,2.41a.35.35,0,0,0,.14.2.36.36,0,0,0,.23.08h1.15a.36.36,0,0,0,.27-.12.39.39,0,0,0,.11-.27v-2.3a1.14,1.14,0,0,0,1.15-1.15V14.48a2.67,2.67,0,0,0,1.89-3ZM180.45,8.08a5,5,0,0,1,5-5h6.14a5,5,0,0,1,5,5V9.34a2.63,2.63,0,0,0-1.39,1,2.69,2.69,0,0,0-.53,1.6v1.22a1,1,0,0,0-.38-.07h-11.5a1,1,0,0,0-.38.07V11.91a2.69,2.69,0,0,0-.53-1.6,2.63,2.63,0,0,0-1.39-1Zm14.18,6.13v1.91H182.37V14.21a.39.39,0,0,1,.11-.27.4.4,0,0,1,.27-.12h11.5a.4.4,0,0,1,.27.12A.39.39,0,0,1,194.63,14.21Zm-13.32,8.43h-.48V20.72h1Zm14.85,0h-.47l-.55-1.92h1Zm1.47-8.85a.43.43,0,0,0-.23.14.42.42,0,0,0-.09.24v5.4a.37.37,0,0,1-.11.27.36.36,0,0,1-.27.12H180.07a.36.36,0,0,1-.27-.12.37.37,0,0,1-.11-.27v-5.4a.43.43,0,0,0-.32-.38,1.87,1.87,0,0,1-1.16-.66,1.94,1.94,0,0,1-.44-1.26A1.92,1.92,0,0,1,179.44,10l.25,0h0a1.83,1.83,0,0,1,1.26.49,1.77,1.77,0,0,1,.48.64,2,2,0,0,1,.17.79v4.6a.39.39,0,0,0,.11.27.4.4,0,0,0,.27.11h13a.4.4,0,0,0,.27-.11.39.39,0,0,0,.11-.27v-4.6a2,2,0,0,1,.17-.79,1.77,1.77,0,0,1,.48-.64,1.75,1.75,0,0,1,.7-.4,1.85,1.85,0,0,1,.81-.07,1.91,1.91,0,0,1,1.65,1.6h0a1.9,1.9,0,0,1-1.58,2.18Z"/></g></mask><clipPath id="clip-path-5"><rect class="cls-2" x="1.33" y="0.34" width="22.43" height="22.43"/></clipPath><clipPath id="clip-path-6"><rect class="cls-2" y="38.13" width="24.53" height="19.89"/></clipPath></defs><g class="cls-3"><g class="cls-4"><path class="cls-5" d="M46.52,16.17c4.77-2.6,10.16-1.24,15.38.08a38.26,38.26,0,0,0,9.2,1.55,12.66,12.66,0,0,0,6.53-1.64.42.42,0,0,0,.19-.26.4.4,0,0,0,0-.32.39.39,0,0,0-.25-.2.45.45,0,0,0-.32,0,12,12,0,0,1-6.59,1.53l-.81-2.18a3.41,3.41,0,0,0,4.26.4,3.44,3.44,0,0,0-2.34-6.28,3.49,3.49,0,0,0-2,1A3.42,3.42,0,0,0,68.76,12l-.53-1.43.41-2.8L72.94,5a2.12,2.12,0,0,0,.64-.51A2,2,0,0,0,74,2.9a2,2,0,0,0-.25-.78,2.06,2.06,0,0,0-.57-.57,2.11,2.11,0,0,0-.76-.31,2.21,2.21,0,0,0-.81,0,2,2,0,0,0-.73.34L65.27,5a.33.33,0,0,0-.13.13.36.36,0,0,0-.07.17l-1,6.26-7.18,2.69A15.88,15.88,0,0,0,46.1,15.41a.44.44,0,0,0-.21.25.42.42,0,0,0,0,.33.4.4,0,0,0,.25.21.47.47,0,0,0,.33,0ZM71.27,9.88a2.55,2.55,0,0,1,3.42,2,2.48,2.48,0,0,1-.19,1.47,2.57,2.57,0,0,1-2.42,1.51A2.59,2.59,0,0,1,69.6,12.2a2.75,2.75,0,0,1,.23-1,2.53,2.53,0,0,1,.59-.82A2.47,2.47,0,0,1,71.27,9.88Zm-6.71,2.37a.46.46,0,0,0,.18-.13.4.4,0,0,0,.09-.21L65.89,5.6l5.47-3.27a1.35,1.35,0,0,1,.43-.22,1.23,1.23,0,0,1,.47,0,1.15,1.15,0,0,1,.45.16,1.1,1.1,0,0,1,.35.33c.28.45.21,1.14-.59,1.65L68,7.12a.33.33,0,0,0-.13.13.36.36,0,0,0-.07.17l-.45,3.1a.38.38,0,0,0,0,.21l2.3,6.16a47.67,47.67,0,0,1-7.58-1.48c-1.2-.31-2.42-.61-3.64-.88Zm13.23,8.11a.44.44,0,0,1,.06.16,1,1,0,0,1,0,.17.55.55,0,0,1-.08.15.47.47,0,0,1-.13.11,12.76,12.76,0,0,1-6.53,1.64A38.26,38.26,0,0,1,61.9,21c-5.22-1.31-10.61-2.67-15.38-.08a.42.42,0,0,1-.33,0,.45.45,0,0,1-.26-.21.47.47,0,0,1,0-.33.45.45,0,0,1,.21-.26c5.06-2.75,10.62-1.35,16,0s10.52,2.65,15.1,0a.43.43,0,0,1,.16-.05.49.49,0,0,1,.17,0,.44.44,0,0,1,.15.08.32.32,0,0,1,.11.12Z"/></g><g class="cls-6"><path class="cls-7" d="M74.34,47.44,63,37.45l-.74-.65-.75.65L59.34,39.3v0H54.86v4l-4.77,4.2-2.25,2h4.34v9.13H72.25V49.4h4.34Zm-3.24.82v9.13H53.33V48.26H50.86L56,43.74V40.38h2.21v1.45l4-3.52,11.38,10H71.1Z"/><path class="cls-7" d="M59.31,54.61a.46.46,0,0,1-.31-.15.41.41,0,0,1-.11-.3.44.44,0,0,1,.14-.3,2.1,2.1,0,0,0,.77-1.59,2.1,2.1,0,0,0-.2-.89,2.2,2.2,0,0,0-.55-.73,2.91,2.91,0,0,1-.75-3.47,3,3,0,0,1,.78-1,.5.5,0,0,1,.31-.1.47.47,0,0,1,.29.14.46.46,0,0,1,.11.3.46.46,0,0,1-.13.29,2.18,2.18,0,0,0-.57.71,2,2,0,0,0,0,1.77,2.2,2.2,0,0,0,.55.73,2.88,2.88,0,0,1,1,2.24,2.88,2.88,0,0,1-.28,1.23,2.83,2.83,0,0,1-.78,1A.45.45,0,0,1,59.31,54.61Z"/><path class="cls-7" d="M62,54.63a.41.41,0,0,1-.31-.14.41.41,0,0,1-.11-.3.43.43,0,0,1,.14-.3,2.1,2.1,0,0,0,.77-1.59,2.1,2.1,0,0,0-.2-.89,2.2,2.2,0,0,0-.55-.73,3,3,0,0,1-.76-1,2.93,2.93,0,0,1-.27-1.23A2.88,2.88,0,0,1,61,47.21a3,3,0,0,1,.78-1,.45.45,0,0,1,.31-.1.47.47,0,0,1,.29.14.46.46,0,0,1,.11.3.46.46,0,0,1-.13.29,2,2,0,0,0-.56.71,2.12,2.12,0,0,0-.22.88,2.27,2.27,0,0,0,.2.89,2.2,2.2,0,0,0,.55.73,2.88,2.88,0,0,1,1,2.24,2.88,2.88,0,0,1-.28,1.23,2.83,2.83,0,0,1-.78,1A.44.44,0,0,1,62,54.63Z"/><path class="cls-7" d="M65.06,54.66a.45.45,0,0,1-.32-.14.42.42,0,0,1-.1-.31.41.41,0,0,1,.13-.29,2.07,2.07,0,0,0,.78-1.59,2.1,2.1,0,0,0-.2-.89,2.2,2.2,0,0,0-.55-.73,2.88,2.88,0,0,1-1-2.24,2.88,2.88,0,0,1,.28-1.23,2.83,2.83,0,0,1,.78-1,.42.42,0,0,1,.14-.09l.17,0a.47.47,0,0,1,.16,0,.32.32,0,0,1,.13.1.42.42,0,0,1,.09.14.45.45,0,0,1,0,.16.75.75,0,0,1,0,.16.71.71,0,0,1-.1.14,2.08,2.08,0,0,0-.57.71,2.19,2.19,0,0,0-.21.88,2.27,2.27,0,0,0,.2.89,2.2,2.2,0,0,0,.55.73,2.93,2.93,0,0,1,.77,1,2.86,2.86,0,0,1,.26,1.23,3,3,0,0,1-.28,1.23,3,3,0,0,1-.78,1,.6.6,0,0,1-.13.09A.44.44,0,0,1,65.06,54.66Z"/></g><g class="cls-8"><path class="cls-5" d="M150.11,22.65H131.73a.28.28,0,0,1-.13,0,.29.29,0,0,1-.12-.07.41.41,0,0,1-.07-.11.28.28,0,0,1,0-.13V.8a.28.28,0,0,1,0-.13.41.41,0,0,1,.07-.11.29.29,0,0,1,.12-.07.28.28,0,0,1,.13,0h18.38a.31.31,0,0,1,.13,0,.26.26,0,0,1,.11.07.28.28,0,0,1,.08.11.27.27,0,0,1,0,.13V22.31a.27.27,0,0,1,0,.13.28.28,0,0,1-.08.11.26.26,0,0,1-.11.07A.31.31,0,0,1,150.11,22.65Zm-18-.67h17.68V1.13H132.08Z"/><path class="cls-5" d="M148.46,22.65H133.38a.39.39,0,0,1-.25-.1.35.35,0,0,1-.1-.24V2.86a.35.35,0,0,1,.1-.24.39.39,0,0,1,.25-.1h15.08a.35.35,0,0,1,.24.1.31.31,0,0,1,.1.24V22.31a.27.27,0,0,1,0,.13.28.28,0,0,1-.08.11.26.26,0,0,1-.11.07A.31.31,0,0,1,148.46,22.65ZM133.72,22h14.39V3.2H133.73Z"/><path class="cls-5" d="M140.92,22.65a.39.39,0,0,1-.25-.1.35.35,0,0,1-.1-.24V2.86a.35.35,0,0,1,.1-.24.39.39,0,0,1,.25-.1.35.35,0,0,1,.24.1.32.32,0,0,1,.11.24V22.31a.28.28,0,0,1,0,.13.28.28,0,0,1-.08.11.26.26,0,0,1-.11.07A.31.31,0,0,1,140.92,22.65Z"/><path class="cls-5" d="M153.9,10.65a.33.33,0,0,1-.17,0,.37.37,0,0,1-.13-.12l-.9-1.4-.89,1.4a.34.34,0,0,1-.22.15.34.34,0,0,1-.41-.25.32.32,0,0,1,0-.25l1.19-1.86a.28.28,0,0,1,.13-.11.32.32,0,0,1,.16,0,.33.33,0,0,1,.17,0,.28.28,0,0,1,.13.11l1.19,1.86a.34.34,0,0,1,.05.17.33.33,0,0,1,0,.17.4.4,0,0,1-.13.13.34.34,0,0,1-.18,0Z"/><path class="cls-5" d="M152.71,15a.33.33,0,0,1-.17,0,.37.37,0,0,1-.13-.12L151.22,13a.31.31,0,0,1,0-.25.32.32,0,0,1,.15-.21.36.36,0,0,1,.48.11l.89,1.4.9-1.4a.36.36,0,0,1,.48-.11.32.32,0,0,1,.15.21.31.31,0,0,1,0,.25L153,14.83a.3.3,0,0,1-.13.12A.32.32,0,0,1,152.71,15Z"/></g><g class="cls-9"><path class="cls-7" d="M151.88,41.12a.34.34,0,0,0-.2,0,.34.34,0,0,0-.17.11l-1.66,1.68h-.79l-.87-.91v-.82l1.62-1.67a.42.42,0,0,0,.1-.17.46.46,0,0,0,0-.2.4.4,0,0,0-.1-.18.36.36,0,0,0-.16-.11,4,4,0,0,0-5.13,4.86l-2.93,3-4.89-5v-1a.36.36,0,0,0-.06-.2.4.4,0,0,0-.14-.15l-2.82-1.7a.36.36,0,0,0-.25-.06.35.35,0,0,0-.23.12l-1.13,1.13a.55.55,0,0,0-.12.24.4.4,0,0,0,.06.26l1.69,2.85a.4.4,0,0,0,.15.14.41.41,0,0,0,.19,0h1l4.9,5-2.92,3a4,4,0,0,0-4,1.13,4.08,4.08,0,0,0-.87,4.06.36.36,0,0,0,.11.16.4.4,0,0,0,.18.1.41.41,0,0,0,.19,0,.4.4,0,0,0,.18-.1L134.48,55h.8l.91.92v.8l-1.67,1.67a.4.4,0,0,0-.1.18.44.44,0,0,0,0,.2.46.46,0,0,0,.1.18.36.36,0,0,0,.16.11,3.94,3.94,0,0,0,4.51-1.47,3.88,3.88,0,0,0,.69-1.63,4,4,0,0,0-.07-1.76l2.35-2.38.54.59-.25.25a.48.48,0,0,0-.1.28.4.4,0,0,0,.12.27.36.36,0,0,0,.27.12.37.37,0,0,0,.28-.1l.22-.23,5.05,5.55h0a2.38,2.38,0,0,0,3.39,0,2.44,2.44,0,0,0,0-3.42h0L146.17,50l.21-.22a.41.41,0,0,0,.1-.13.47.47,0,0,0,0-.16.41.41,0,0,0,0-.16.42.42,0,0,0-.09-.14.34.34,0,0,0-.14-.09.4.4,0,0,0-.15,0,.42.42,0,0,0-.16,0,.41.41,0,0,0-.13.1l-.25.24L145,49l2.36-2.39a3.91,3.91,0,0,0,2.12,0,4,4,0,0,0,1.82-1.11,4.05,4.05,0,0,0,.87-4,.45.45,0,0,0-.11-.17.38.38,0,0,0-.18-.09Zm-16.42,1.63a.38.38,0,0,0-.13-.09.26.26,0,0,0-.15,0h-.9l-1.42-2.4.69-.69L135.91,41v.91a.36.36,0,0,0,.12.28l5,5.08-.56.57Zm10.14,7.86,5.52,5.11a1.61,1.61,0,0,1,.47,1.14,1.66,1.66,0,0,1-.47,1.14,1.61,1.61,0,0,1-1.13.47,1.56,1.56,0,0,1-1.13-.48l-5.07-5.56Zm-.59-.55-1.76,1.78-.54-.59,1.72-1.73Zm3.38-4.17a3.21,3.21,0,0,1-1-.17.41.41,0,0,0-.22,0,.45.45,0,0,0-.19.11l-7.89,8A.37.37,0,0,0,139,54a.41.41,0,0,0,0,.22,3.21,3.21,0,0,1,.13,1.51,3.28,3.28,0,0,1-.56,1.4,3.39,3.39,0,0,1-1.14,1,3.2,3.2,0,0,1-1.45.35,2.06,2.06,0,0,1-.35,0l1.27-1.27A.41.41,0,0,0,137,57a.42.42,0,0,0,0-.15V55.75a.47.47,0,0,0,0-.16l-.08-.13-1.14-1.15a.38.38,0,0,0-.13-.09.41.41,0,0,0-.16,0h-1.12a.41.41,0,0,0-.16,0,.38.38,0,0,0-.13.09l-1.25,1.28a2.11,2.11,0,0,1,0-.35,3.25,3.25,0,0,1,.35-1.47,3.2,3.2,0,0,1,2.37-1.72,3.14,3.14,0,0,1,1.49.13.38.38,0,0,0,.21,0,.35.35,0,0,0,.19-.1l7.9-8a.49.49,0,0,0,.11-.2.55.55,0,0,0,0-.22,3.06,3.06,0,0,1-.13-1.5,3.19,3.19,0,0,1,3.15-2.75l.35,0-1.24,1.28a.39.39,0,0,0-.11.28v1.14a.43.43,0,0,0,.11.28l1.1,1.15a.38.38,0,0,0,.13.09.47.47,0,0,0,.16,0H150a.28.28,0,0,0,.15,0,.57.57,0,0,0,.13-.08l1.26-1.28c0,.11,0,.23,0,.35a3.26,3.26,0,0,1-.94,2.28,3.19,3.19,0,0,1-2.25.94Z"/><path class="cls-7" d="M150,56.85a.41.41,0,0,0,.13.1l.16,0a.41.41,0,0,0,.16,0,.3.3,0,0,0,.13-.09.42.42,0,0,0,.09-.14.41.41,0,0,0,0-.16.32.32,0,0,0,0-.16.38.38,0,0,0-.09-.13L147,52.66a.4.4,0,0,0-.55,0,.39.39,0,0,0-.11.27.42.42,0,0,0,.1.28Z"/></g><g class="cls-10"><path class="cls-11" d="M200,11.5a2.71,2.71,0,0,0-.79-1.51,2.66,2.66,0,0,0-1.53-.74,1.88,1.88,0,0,0-.34,0V8.08a5.74,5.74,0,0,0-5.74-5.75h-6.14a5.74,5.74,0,0,0-5.74,5.75V9.23a1.88,1.88,0,0,0-.34,0,2.63,2.63,0,0,0-1.53.74,2.67,2.67,0,0,0,1.1,4.49v5.09a1.14,1.14,0,0,0,1.15,1.15V23a.39.39,0,0,0,.11.27.36.36,0,0,0,.27.12h1.15a.38.38,0,0,0,.23-.08.35.35,0,0,0,.14-.2l.68-2.41h11.69l.69,2.41a.35.35,0,0,0,.14.2.36.36,0,0,0,.23.08h1.15a.36.36,0,0,0,.27-.12.39.39,0,0,0,.11-.27v-2.3a1.14,1.14,0,0,0,1.15-1.15V14.48a2.67,2.67,0,0,0,1.89-3ZM180.45,8.08a5,5,0,0,1,5-5h6.14a5,5,0,0,1,5,5V9.34a2.63,2.63,0,0,0-1.39,1,2.69,2.69,0,0,0-.53,1.6v1.22a1,1,0,0,0-.38-.07h-11.5a1,1,0,0,0-.38.07V11.91a2.69,2.69,0,0,0-.53-1.6,2.63,2.63,0,0,0-1.39-1Zm14.18,6.13v1.91H182.37V14.21a.39.39,0,0,1,.11-.27.4.4,0,0,1,.27-.12h11.5a.4.4,0,0,1,.27.12A.39.39,0,0,1,194.63,14.21Zm-13.32,8.43h-.48V20.72h1Zm14.85,0h-.47l-.55-1.92h1Zm1.47-8.85a.43.43,0,0,0-.23.14.42.42,0,0,0-.09.24v5.4a.37.37,0,0,1-.11.27.36.36,0,0,1-.27.12H180.07a.36.36,0,0,1-.27-.12.37.37,0,0,1-.11-.27v-5.4a.43.43,0,0,0-.32-.38,1.87,1.87,0,0,1-1.16-.66,1.94,1.94,0,0,1-.44-1.26A1.92,1.92,0,0,1,179.44,10l.25,0h0a1.83,1.83,0,0,1,1.26.49,1.77,1.77,0,0,1,.48.64,2,2,0,0,1,.17.79v4.6a.39.39,0,0,0,.11.27.4.4,0,0,0,.27.11h13a.4.4,0,0,0,.27-.11.39.39,0,0,0,.11-.27v-4.6a2,2,0,0,1,.17-.79,1.77,1.77,0,0,1,.48-.64,1.75,1.75,0,0,1,.7-.4,1.85,1.85,0,0,1,.81-.07,1.91,1.91,0,0,1,1.65,1.6h0a1.9,1.9,0,0,1-1.58,2.18Z"/></g><path class="cls-7" d="M181.55,37.47h15.16V49.58h.67V37.14a.19.19,0,0,0,0-.13.3.3,0,0,0-.07-.11.28.28,0,0,0-.11-.08l-.13,0H181.21l-.13,0a.28.28,0,0,0-.11.08.3.3,0,0,0-.07.11.19.19,0,0,0,0,.13V49.58h.67Z"/><path class="cls-7" d="M195.68,49.6V38.84a.27.27,0,0,0,0-.12.29.29,0,0,0-.07-.12.41.41,0,0,0-.11-.07l-.13,0H182.92l-.13,0a.41.41,0,0,0-.11.07.47.47,0,0,0-.07.12.27.27,0,0,0,0,.12V49.58h.68V39.21h5.51V49.6h.67V39.21H195V49.6Z"/><path class="cls-7" d="M199.6,59h-1.08V51.36h1.08a.33.33,0,0,0,.24-.1.34.34,0,0,0,.1-.23.35.35,0,0,0-.1-.24.33.33,0,0,0-.24-.1H178.66a.33.33,0,0,0-.24.1.34.34,0,0,0-.09.24.33.33,0,0,0,.09.23.33.33,0,0,0,.24.1h1.09V59h-1.09a.33.33,0,0,0-.24.1.33.33,0,0,0-.09.23.34.34,0,0,0,.09.24.33.33,0,0,0,.24.1H199.6a.33.33,0,0,0,.24-.1.35.35,0,0,0,.1-.24.34.34,0,0,0-.1-.23A.33.33,0,0,0,199.6,59Zm-1.76,0h-1.9V51.36h1.9Zm-12.25-7.63h1.9V59h-1.9ZM184.92,59H183V51.36h1.9Zm3.27-7.63h1.9V59h-1.9Zm2.58,0h1.9V59h-1.9Zm2.57,0h1.9V59h-1.9Zm-12.92,0h1.9V59h-1.9Z"/><g class="cls-12"><path class="cls-7" d="M13.82,7.77a1.5,1.5,0,0,0,.53.5,1.53,1.53,0,0,0,.69.2,2.65,2.65,0,0,0,1.41-.31c.05,1.18.76,2.08,1.66,2.08s1.61-.9,1.65-2.08a1.94,1.94,0,0,0,2.64-.39,2,2,0,0,0,0-1.44,1.92,1.92,0,0,0-1-1,1.92,1.92,0,0,0,1-1,2,2,0,0,0,0-1.44,1.5,1.5,0,0,0-.53-.5,1.53,1.53,0,0,0-.7-.2,2.67,2.67,0,0,0-1.41.31c0-1.18-.75-2.08-1.65-2.08s-1.61.9-1.65,2.08a2.56,2.56,0,0,0-1.41-.31,1.32,1.32,0,0,0-.7.2,1.5,1.5,0,0,0-.53.5,1.58,1.58,0,0,0-.17.71,1.51,1.51,0,0,0,.17.7,2.66,2.66,0,0,0,1,1.07,1.92,1.92,0,0,0-1,2.47Zm4.29-3.59a1.1,1.1,0,0,1,.61.19,1,1,0,0,1,.41.5,1.05,1.05,0,0,1,.07.63,1.09,1.09,0,0,1-.3.57,1.19,1.19,0,0,1-.57.31,1.08,1.08,0,0,1-.64-.07,1.09,1.09,0,0,1-.5-.4A1.15,1.15,0,0,1,17,5.29a1.11,1.11,0,0,1,1.1-1.11Zm0,5.18c-.37,0-.78-.53-.78-1.32a1.79,1.79,0,0,1,.16-.78.19.19,0,0,0,0-.08,2,2,0,0,0,1.19,0l0,.08a2,2,0,0,1,.16.78c0,.78-.41,1.32-.78,1.32Zm3.53-2c-.19.32-.86.4-1.54,0a1.85,1.85,0,0,1-.59-.52l-.06-.07a2,2,0,0,0,.6-1l.08,0a1.85,1.85,0,0,1,.76.25c.67.39.94,1,.75,1.34ZM19.51,3.76a2,2,0,0,1,.59-.52,1.76,1.76,0,0,1,1-.26.73.73,0,0,1,.3.07.68.68,0,0,1,.24.2c.19.33-.08,1-.75,1.34a1.85,1.85,0,0,1-.76.25l-.08,0a2,2,0,0,0-.6-1l.06-.07Zm-1.4-2.54c.37,0,.78.54.78,1.32a1.91,1.91,0,0,1-.16.78l0,.08a2,2,0,0,0-1.18,0l0-.08a1.91,1.91,0,0,1-.16-.78c0-.78.41-1.32.78-1.32Zm-3.5,2.63a.75.75,0,0,1-.09-.29.81.81,0,0,1,.06-.31.68.68,0,0,1,.24-.2.73.73,0,0,1,.3-.07,1.76,1.76,0,0,1,1,.26,2,2,0,0,1,.59.52l.06.07a2,2,0,0,0-.6,1l-.08,0a1.8,1.8,0,0,1-.75-.25,1.77,1.77,0,0,1-.72-.74ZM15.33,6a1.85,1.85,0,0,1,.76-.25l.09,0a2,2,0,0,0,.59,1,.18.18,0,0,0-.05.07,2,2,0,0,1-.6.52,1.85,1.85,0,0,1-1,.26.78.78,0,0,1-.3-.07.91.91,0,0,1-.24-.2c-.18-.33.08-1,.76-1.34Z"/><path class="cls-7" d="M23.61,15.62a.45.45,0,0,0-.48-.06,11.49,11.49,0,0,0-3.47,2.65,10.42,10.42,0,0,1,1.19-2.47.42.42,0,0,0,.06-.27.38.38,0,0,0-.09-.25.43.43,0,0,0-.23-.14.42.42,0,0,0-.27,0l-.67.26a6.55,6.55,0,0,0-1.1.53V13.31a.48.48,0,0,0-.13-.31.43.43,0,0,0-.31-.12.45.45,0,0,0-.31.12.48.48,0,0,0-.13.31v3.17A7.74,7.74,0,0,0,16.23,18a18.67,18.67,0,0,1,1-3.09.45.45,0,0,0,0-.28.45.45,0,0,0-.16-.24.44.44,0,0,0-.27-.09.46.46,0,0,0-.27.09l-.18.14a11,11,0,0,0-3.87,5.14,11,11,0,0,0-3.86-5.14l-.19-.14a.45.45,0,0,0-.54,0,.43.43,0,0,0-.15.24.39.39,0,0,0,0,.28,19.69,19.69,0,0,1,1,3.09,8,8,0,0,0-1.44-1.53V11.92a2.15,2.15,0,0,0,1.21-2,2.57,2.57,0,0,0,1.41.32,1.59,1.59,0,0,0,1.22-.71,1.91,1.91,0,0,0,0-1.43,1.94,1.94,0,0,0-1-1,2.57,2.57,0,0,0,1-1.06,1.48,1.48,0,0,0,.19-.71,1.44,1.44,0,0,0-.19-.7,1.52,1.52,0,0,0-.52-.52,1.44,1.44,0,0,0-.7-.19,2.57,2.57,0,0,0-1.41.32C8.58,3,7.87,2.09,7,2.09S5.36,3,5.31,4.18A2.55,2.55,0,0,0,3.9,3.86a1.52,1.52,0,0,0-1.22.71A2,2,0,0,0,2.68,6a1.89,1.89,0,0,0,1,1,1.94,1.94,0,0,0-1,1,2,2,0,0,0,0,1.43,1.52,1.52,0,0,0,1.22.71,2.55,2.55,0,0,0,1.41-.32,2.14,2.14,0,0,0,.31,1.19,2.09,2.09,0,0,0,.92.82v4a7.58,7.58,0,0,0-1.11-.54l-.67-.25a.39.39,0,0,0-.26,0,.51.51,0,0,0-.23.15.43.43,0,0,0,0,.51,10.45,10.45,0,0,1,1.18,2.48A11.25,11.25,0,0,0,2,15.56a.43.43,0,0,0-.25,0,.52.52,0,0,0-.23.1.45.45,0,0,0-.13.22.43.43,0,0,0,0,.25l.57,1.76a14.24,14.24,0,0,1,.7,4.49.47.47,0,0,0,0,.16.46.46,0,0,0,.09.15.38.38,0,0,0,.15.09.45.45,0,0,0,.16,0,.47.47,0,0,0,.17,0,.42.42,0,0,0,.14-.09.49.49,0,0,0,.1-.15.45.45,0,0,0,0-.16,15.38,15.38,0,0,0-.75-4.76l-.23-.71a10.33,10.33,0,0,1,3.35,3.45,10.24,10.24,0,0,1,0,1.75v.24a1,1,0,0,0,0,.17.6.6,0,0,0,.09.15.49.49,0,0,0,.3.14.42.42,0,0,0,.32-.11.44.44,0,0,0,.15-.3v-.24a11.31,11.31,0,0,0-1.18-5.74,6.68,6.68,0,0,1,3.74,5.84v.11a.44.44,0,0,0,.13.31.4.4,0,0,0,.31.13.42.42,0,0,0,.31-.13.44.44,0,0,0,.13-.31v-.17a19,19,0,0,0-1-6A8.54,8.54,0,0,1,11.3,19a8.41,8.41,0,0,1,.8,3.37.44.44,0,0,0,.13.31.43.43,0,0,0,.62,0,.44.44,0,0,0,.13-.31,8.41,8.41,0,0,1,.8-3.37,8.54,8.54,0,0,1,2.06-2.78,19,19,0,0,0-1,6v.17a.44.44,0,0,0,.13.31.42.42,0,0,0,.31.13.47.47,0,0,0,.17,0,.45.45,0,0,0,.14-.1.36.36,0,0,0,.1-.14.47.47,0,0,0,0-.17v-.11a6.68,6.68,0,0,1,3.74-5.84,11.31,11.31,0,0,0-1.18,5.74v.24a.44.44,0,0,0,.15.3.42.42,0,0,0,.32.11.49.49,0,0,0,.3-.14.43.43,0,0,0,.11-.32v-.24a10.24,10.24,0,0,1,0-1.75,10.33,10.33,0,0,1,3.35-3.45l-.23.71a15.38,15.38,0,0,0-.75,4.76.43.43,0,0,0,.44.43.41.41,0,0,0,.43-.43,14.54,14.54,0,0,1,.71-4.49l.57-1.76a.43.43,0,0,0,0-.25.45.45,0,0,0-.13-.22ZM5.86,7a1.12,1.12,0,0,1,.69-1A1.16,1.16,0,0,1,7.19,6a1.1,1.1,0,0,1,.56.3,1.06,1.06,0,0,1,.3.57A1,1,0,0,1,8,7.47a1.13,1.13,0,0,1-1,.68A1.11,1.11,0,0,1,5.86,7Zm4.64,2a.59.59,0,0,1-.24.2.6.6,0,0,1-.3.07A1.76,1.76,0,0,1,9,9.1a1.9,1.9,0,0,1-.6-.53l0-.07a2,2,0,0,0,.59-1H9a2,2,0,0,1,.75.25c.67.39.94,1,.75,1.34ZM8.37,5.52A1.8,1.8,0,0,1,9,5a1.74,1.74,0,0,1,1-.25.45.45,0,0,1,.3,0A.54.54,0,0,1,10.5,5a.53.53,0,0,1,.07.3.54.54,0,0,1-.1.3,1.81,1.81,0,0,1-.72.73A1.86,1.86,0,0,1,9,6.6H8.91a2,2,0,0,0-.6-1l.06-.06ZM7,3c.37,0,.78.54.78,1.32a1.88,1.88,0,0,1-.16.78l0,.08a2,2,0,0,0-1.18,0l0-.08a1.88,1.88,0,0,1-.16-.78C6.19,3.51,6.6,3,7,3ZM3.44,5a.64.64,0,0,1,.24-.2A.79.79,0,0,1,4,4.73,1.85,1.85,0,0,1,5,5a1.9,1.9,0,0,1,.6.53l0,.06a2,2,0,0,0-.59,1H5a2,2,0,0,1-.75-.25C3.53,6,3.26,5.33,3.45,5ZM5.57,8.57A1.86,1.86,0,0,1,5,9.1a1.76,1.76,0,0,1-1,.25.6.6,0,0,1-.3-.07.68.68,0,0,1-.24-.2c-.19-.32.08-.95.75-1.34A2,2,0,0,1,5,7.49H5a2,2,0,0,0,.6,1l0,.06ZM6.35,9l0-.08a2,2,0,0,0,1.19,0,.24.24,0,0,0,0,.08,1.73,1.73,0,0,1,.16.78c0,.78-.41,1.32-.78,1.32s-.78-.54-.78-1.32A1.88,1.88,0,0,1,6.35,9Z"/><path class="cls-7" d="M17.8,11.25a.45.45,0,0,0-.12.27.43.43,0,0,0,.07.29A.43.43,0,0,0,18,12a.41.41,0,0,0,.29,0,.47.47,0,0,0,.22-.2.42.42,0,0,0,0-.29.46.46,0,0,0-.15-.26.44.44,0,0,0-.59,0Z"/></g><g class="cls-13"><path class="cls-7" d="M18.54,58H6V45.52H18.54ZM7,57H17.49V46.56H7Z"/><path class="cls-7" d="M11.71,56.44H8.26V53.32h3.45ZM9,55.4h1.91v-1H9Z"/><path class="cls-7" d="M11.71,53.14H8.26V50h3.45ZM9,52.1h1.91v-1H9Z"/><path class="cls-7" d="M16.27,56.44H12.82V53.32h3.45Zm-2.68-1H15.5v-1H13.59Z"/><path class="cls-7" d="M16.27,53.14H12.82V50h3.45Zm-2.68-1H15.5v-1H13.59Z"/><path class="cls-7" d="M21.15,58H3.38V42.91h1V57H20.1V42.91h1Z"/><path class="cls-7" d="M24.05,45.45,12.26,39.3.48,45.45,0,44.52l12.26-6.39,12.27,6.39Z"/></g></g></svg>