<svg xmlns="http://www.w3.org/2000/svg" viewBox="0 0 24 24"><path d="M19.42.25H.73A.48.48,0,0,0,.25.73V23.27a.48.48,0,0,0,.48.48H19.42a.48.48,0,0,0,.48-.48V.73A.48.48,0,0,0,19.42.25ZM2.89,3.37H17.26V22.79H2.88Zm14.85-1H2.41a.48.48,0,0,0-.48.48v19.9H1.21V1.21H18.94V22.79h-.72V2.89A.49.49,0,0,0,17.74,2.41Z" style="fill:#e85451"/><path d="M10.07,2.41a.48.48,0,0,0-.47.48V23.27a.47.47,0,0,0,.47.48h0a.48.48,0,0,0,.47-.48V2.89A.48.48,0,0,0,10.07,2.41Z" style="fill:#e85451"/><path d="M20.6,11.11a.43.43,0,0,0,.25.07H21a.49.49,0,0,0,.3-.21l.8-1.3.8,1.3a.48.48,0,0,0,.41.22h.3l-.06-.06h0a.48.48,0,0,0,.22-.3.51.51,0,0,0-.06-.36l-1.22-2-.12-.12a.5.5,0,0,0-.69.13l-1.21,1.95a.46.46,0,0,0-.06.36A.48.48,0,0,0,20.6,11.11Z" style="fill:#e85451"/><path d="M23.52,12.88a.48.48,0,0,0-.66.16l-.8,1.29L21.26,13a.51.51,0,0,0-.3-.22.54.54,0,0,0-.36.06.51.51,0,0,0-.22.3.45.45,0,0,0,.06.36l1.21,2a.49.49,0,0,0,.41.23h0a.49.49,0,0,0,.41-.23l1.21-2a.49.49,0,0,0,.06-.36A.51.51,0,0,0,23.52,12.88Z" style="fill:#e85451"/></svg>