<?xml version="1.0" encoding="utf-8"?>
<!-- Generator: Adobe Illustrator 26.0.1, SVG Export Plug-In . SVG Version: 6.00 Build 0)  -->
<svg version="1.1" id="Layer_1" xmlns="http://www.w3.org/2000/svg" xmlns:xlink="http://www.w3.org/1999/xlink" x="0px" y="0px"
	 viewBox="0 0 24 24" style="enable-background:new 0 0 24 24;" xml:space="preserve">
<style type="text/css">
	.st0{fill:#E85451;}
</style>
<g>
	<path class="st0" d="M10.4,20.1H3.2V13h7.1V20.1z M3.9,19.5h5.9v-5.9H3.9V19.5z"/>
	<path class="st0" d="M23.8,22.9H0.2V1.1h23.5V22.9z M1.1,22.1h21.8V1.9H1.1V22.1z"/>
	<path class="st0" d="M17.8,7.1c0-0.1,0-0.1,0-0.2c0-0.1-0.1-0.1-0.1-0.2l0,0c-0.1-0.1-0.2-0.1-0.3-0.1l-3.2-0.1
		c-0.1,0-0.3,0-0.3,0.1c-0.1,0.1-0.1,0.2-0.2,0.3c0,0.1,0,0.2,0.1,0.3c0.1,0.1,0.2,0.1,0.3,0.2l2,0.1l-4,3.5
		C12,11.2,12,11.3,12,11.4s0.1,0.3,0.1,0.3c0.1,0.1,0.2,0.1,0.3,0.1c0.1,0,0.2-0.1,0.3-0.1l4.1-3.5l0.1,2.1c0,0.1,0.1,0.2,0.2,0.3
		c0.1,0.1,0.2,0.1,0.3,0.1c0.1,0,0.2-0.1,0.3-0.2c0.1-0.1,0.1-0.2,0.1-0.3L17.8,7.1z M17.5,6.9C17.5,6.9,17.5,6.9,17.5,6.9L17.5,6.9
		L17.5,6.9z M17.7,10.3L17.7,10.3L17.7,10.3L17.7,10.3z"/>
</g>
</svg>
