<svg xmlns="http://www.w3.org/2000/svg" viewBox="0 0 24 24"><path d="M13.34,8a1.6,1.6,0,0,0,1.28.74,2.71,2.71,0,0,0,1.48-.33c0,1.23.79,2.18,1.74,2.18s1.69-.95,1.73-2.18A2,2,0,0,0,22.33,8a2,2,0,0,0-1-2.59,2,2,0,0,0,1-2.6,1.6,1.6,0,0,0-1.28-.74,2.71,2.71,0,0,0-1.48.33c0-1.23-.79-2.18-1.73-2.18s-1.69,1-1.73,2.18a2.75,2.75,0,0,0-1.48-.33,1.6,1.6,0,0,0-1.29.74,1.61,1.61,0,0,0,0,1.48,2.69,2.69,0,0,0,1,1.11,2,2,0,0,0-1,2.6Zm4.49-3.75A1.15,1.15,0,0,1,19,5.43,1.18,1.18,0,0,1,17.84,6.6a1.16,1.16,0,0,1-1.16-1.16h0a1.16,1.16,0,0,1,1.16-1.16Zm0,5.42c-.38,0-.81-.56-.81-1.38a1.94,1.94,0,0,1,.16-.82l0-.08a2.05,2.05,0,0,0,1.25,0,.11.11,0,0,0,0,.08,1.94,1.94,0,0,1,.16.82c0,.81-.42,1.38-.81,1.38Zm3.7-2.13c-.19.34-.9.43-1.61,0A2,2,0,0,1,19.3,7L19.24,7a2.2,2.2,0,0,0,.63-1.08H20a2.25,2.25,0,0,1,.79.27c.7.41,1,1.06.79,1.4ZM19.3,3.84a2.07,2.07,0,0,1,.62-.56A1.85,1.85,0,0,1,21,3a.72.72,0,0,1,.57.28c.19.34-.09,1-.79,1.4A2.25,2.25,0,0,1,20,5h-.09a2.06,2.06,0,0,0-.63-1.07l.06-.07ZM17.83,1.17c.39,0,.82.56.82,1.38a2,2,0,0,1-.17.82.29.29,0,0,0,0,.09,2.05,2.05,0,0,0-1.25,0,.29.29,0,0,0,0-.09A2,2,0,0,1,17,2.55c0-.81.43-1.38.82-1.38ZM14.17,3.93a.7.7,0,0,1,0-.63A.69.69,0,0,1,14.7,3a1.85,1.85,0,0,1,1.05.26,2,2,0,0,1,.62.56l.06.06A2.11,2.11,0,0,0,15.81,5h-.09a2.18,2.18,0,0,1-.79-.27,1.88,1.88,0,0,1-.76-.77Zm.76,2.24a2.2,2.2,0,0,1,.78-.27h.1A2.06,2.06,0,0,0,16.44,7L16.38,7a2,2,0,0,1-.63.56,1.83,1.83,0,0,1-1.05.26.69.69,0,0,1-.56-.28c-.19-.34.08-1,.79-1.4Z" style="fill:#e85451"/><path d="M23.6,16.26a.46.46,0,0,0-.5-.07A11.92,11.92,0,0,0,19.46,19a11.42,11.42,0,0,1,1.24-2.59.46.46,0,0,0-.14-.64.49.49,0,0,0-.41,0l-.7.27a7.18,7.18,0,0,0-1.15.56V13.84a.47.47,0,0,0-.46-.46.46.46,0,0,0-.46.46v3.32a8,8,0,0,0-1.52,1.6A20.57,20.57,0,0,1,17,15.52a.46.46,0,0,0-.24-.6.45.45,0,0,0-.46.06l-.2.15A11.58,11.58,0,0,0,12,20.51a11.45,11.45,0,0,0-4-5.38L7.76,15a.46.46,0,0,0-.65.08.45.45,0,0,0-.05.46,20.53,20.53,0,0,1,1.08,3.24,7.9,7.9,0,0,0-1.51-1.6V12.38a2.22,2.22,0,0,0,1.27-2.1,2.8,2.8,0,0,0,1.48.33,1.6,1.6,0,0,0,1.28-.74,2,2,0,0,0-1-2.6,2.75,2.75,0,0,0,1-1.11,1.5,1.5,0,0,0-.55-2,1.56,1.56,0,0,0-.73-.19,2.71,2.71,0,0,0-1.48.33C7.85,3,7.11,2.09,6.17,2.09S4.47,3,4.43,4.27A2.71,2.71,0,0,0,3,3.94a1.6,1.6,0,0,0-1.28.74,2,2,0,0,0,1,2.59,2,2,0,0,0-1,2.6A1.6,1.6,0,0,0,3,10.61a2.71,2.71,0,0,0,1.48-.33,2.2,2.2,0,0,0,1.28,2.1v4.15A7.28,7.28,0,0,0,4.55,16l-.7-.27a.46.46,0,0,0-.59.26.52.52,0,0,0,0,.42A10.3,10.3,0,0,1,4.54,19,11.88,11.88,0,0,0,.91,16.19a.47.47,0,0,0-.62.22.5.5,0,0,0,0,.34l.6,1.85a15.23,15.23,0,0,1,.74,4.69.46.46,0,1,0,.92,0,16.21,16.21,0,0,0-.79-5l-.24-.74A10.82,10.82,0,0,1,5,21.18a11.29,11.29,0,0,1,0,1.84l0,.24a.46.46,0,0,0,.92.06H6l0-.25a12,12,0,0,0-1.24-6,7,7,0,0,1,3.92,6.12v.12a.45.45,0,0,0,.46.46h0a.46.46,0,0,0,.46-.46h0v-.18a20,20,0,0,0-1-6.27,9,9,0,0,1,3,6.45.46.46,0,0,0,.92,0,9,9,0,0,1,3-6.45,20,20,0,0,0-1,6.27v.18a.46.46,0,0,0,.46.46h0a.45.45,0,0,0,.46-.46h0v-.12a7,7,0,0,1,3.92-6.12,12,12,0,0,0-1.24,6l0,.25a.46.46,0,0,0,.92-.06h0l0-.24a11.29,11.29,0,0,1,0-1.84,10.82,10.82,0,0,1,3.51-3.61l-.24.74a16.21,16.21,0,0,0-.79,5,.45.45,0,0,0,.46.46.46.46,0,0,0,.46-.46h0a15.23,15.23,0,0,1,.74-4.69l.6-1.85a.47.47,0,0,0-.14-.49ZM5,7.27A1.16,1.16,0,1,1,6.16,8.43h0A1.17,1.17,0,0,1,5,7.27ZM9.86,9.41a.69.69,0,0,1-.56.28,1.85,1.85,0,0,1-1.05-.26,2,2,0,0,1-.62-.56L7.56,8.8a2,2,0,0,0,.63-1.08l.09,0A1.86,1.86,0,0,1,9.07,8c.7.4,1,1.06.79,1.4ZM7.63,5.67a2.17,2.17,0,0,1,.62-.55A1.94,1.94,0,0,1,9.3,4.85a.59.59,0,0,1,.64.52.64.64,0,0,1-.11.4,1.88,1.88,0,0,1-.76.77,2,2,0,0,1-.79.26l-.09,0a2.11,2.11,0,0,0-.62-1.08l.06-.07ZM6.16,3C6.55,3,7,3.57,7,4.39a1.94,1.94,0,0,1-.16.82.11.11,0,0,0,0,.08,2.18,2.18,0,0,0-1.24,0l0-.08a2,2,0,0,1-.17-.82c0-.82.43-1.38.82-1.38ZM2.47,5.14A.7.7,0,0,1,3,4.85a1.92,1.92,0,0,1,1.05.27,2.09,2.09,0,0,1,.63.55.18.18,0,0,0,0,.07,2.11,2.11,0,0,0-.62,1.08l-.09,0a2,2,0,0,1-.79-.26c-.7-.41-1-1.07-.79-1.4ZM4.7,8.87a1.91,1.91,0,0,1-.62.55A1.86,1.86,0,0,1,3,9.69a.75.75,0,0,1-.57-.28c-.19-.34.09-1,.79-1.4A1.91,1.91,0,0,1,4,7.74l.09,0A2.12,2.12,0,0,0,4.76,8.8l-.06.07Zm.81.47a.16.16,0,0,0,0-.08,2.22,2.22,0,0,0,1.25,0l0,.08a1.94,1.94,0,0,1,.16.82c0,.81-.43,1.38-.81,1.38s-.82-.56-.82-1.38a1.94,1.94,0,0,1,.16-.82Z" style="fill:#e85451"/><path d="M17.51,11.68a.48.48,0,0,0,0,.65.46.46,0,1,0,.33-.78A.51.51,0,0,0,17.51,11.68Z" style="fill:#e85451"/></svg>