<svg xmlns="http://www.w3.org/2000/svg" viewBox="0 0 24 24"><path d="M22.41,16.93h-.1a2,2,0,0,0-.44-1.4,2.08,2.08,0,0,0-1.39-.77,2.15,2.15,0,0,0-.91.1l-.22-.22a4.3,4.3,0,0,0,.14-1.07,1,1,0,0,0-.4-.78,4.24,4.24,0,0,0,.4-1.78,1,1,0,0,0-1-1h-1a.45.45,0,1,0,0,.9h1a.09.09,0,0,1,.09.09,3.36,3.36,0,0,1-.39,1.58H9.74A3.28,3.28,0,0,1,9.35,11a.19.19,0,0,1,0-.07.08.08,0,0,1,.07,0H15.9a.45.45,0,0,0,.45-.45A.45.45,0,0,0,15.9,10H9.44a1,1,0,0,0-1,1,4.31,4.31,0,0,0,.39,1.77,1,1,0,0,0-.39.79,4.2,4.2,0,0,0,1.68,3.37H7.83a.79.79,0,0,1-.68-.41l-.34-.66A1.63,1.63,0,0,0,5.34,15H4.09V12.84h.55v.47a1.14,1.14,0,0,0,2.28,0V11.47a1.14,1.14,0,1,0-2.28,0v.47H4.09V3.33a.49.49,0,0,1,.49-.49h1a1,1,0,0,1,.7.29L7.54,4.35l.27.86a.78.78,0,0,0,.57.53.58.58,0,0,0,.19,0,.8.8,0,0,0,.56-.24l1.14-1.17a.79.79,0,0,0,0-1.12A.75.75,0,0,0,10,3.05l-.83-.29L7.91,1.53A3.25,3.25,0,0,0,5.63.58H4.57A2.77,2.77,0,0,0,1.83,3.33V13.81a.45.45,0,0,0,.9,0V3.33A1.85,1.85,0,0,1,4.58,1.48h1a2.32,2.32,0,0,1,1.65.68l1,1-.33.34-1-1A1.88,1.88,0,0,0,5.63,2h-1A1.38,1.38,0,0,0,3.19,3.33V15H1.46A1.21,1.21,0,0,0,.25,16.17v4.47a3,3,0,0,0,3,3H18.4a5.38,5.38,0,0,0,5.35-5.35A1.34,1.34,0,0,0,22.41,16.93Zm-13-3.46h9a.1.1,0,0,1,.1.09,3.29,3.29,0,0,1-.05.54,2.8,2.8,0,0,0-3.29.81,1.71,1.71,0,0,1-1.29.63,1.82,1.82,0,0,0-1.67,1.33,3.31,3.31,0,0,1-2.94-3.31A.09.09,0,0,1,9.44,13.47Zm4.56,3a2.6,2.6,0,0,0,1.95-1,1.89,1.89,0,0,1,2.66-.3l.18.16a1.89,1.89,0,0,0-.38.51.45.45,0,0,0,.22.6.44.44,0,0,0,.34,0,.43.43,0,0,0,.25-.23,1.14,1.14,0,0,1,1-.6h.08a1.19,1.19,0,0,1,.83.38,1.26,1.26,0,0,1,.31.87v0H13.23A.93.93,0,0,1,14,16.44Zm8.86,1.82a4.48,4.48,0,0,1-4.46,4.47H3.23a2.11,2.11,0,0,1-2.09-2.09V16.17a.33.33,0,0,1,.32-.32H5.34a.77.77,0,0,1,.68.42l.34.65a1.65,1.65,0,0,0,1.47.9H22.41A.45.45,0,0,1,22.86,18.26Zm-17.33-5V11.47a.25.25,0,0,1,.49,0v1.84a.25.25,0,1,1-.49,0ZM8.44,4.24,9,3.67l.5.18-.9.92Z" style="fill:#e85451"/><path d="M20.29,2h.26v.26a.45.45,0,1,0,.9,0V2h.26a.45.45,0,0,0,.44-.45.45.45,0,0,0-.44-.45h-.26V.83a.45.45,0,0,0-.9,0v.26h-.26a.45.45,0,0,0-.45.45A.45.45,0,0,0,20.29,2Z" style="fill:#e85451"/><path d="M15.22,5.67h.32V6a1.07,1.07,0,1,0,2.14,0V5.67H18a1.07,1.07,0,1,0,0-2.14h-.32V3.21a1.07,1.07,0,0,0-2.14,0v.32h-.32a1.07,1.07,0,0,0,0,2.14ZM16.44,4V3.22A.18.18,0,0,1,16.61,3a.18.18,0,0,1,.18.18V4a.45.45,0,0,0,.44.45H18a.18.18,0,0,1,.17.17.18.18,0,0,1-.17.18h-.77a.44.44,0,0,0-.44.44V6a.18.18,0,0,1-.18.18A.18.18,0,0,1,16.44,6V5.22A.45.45,0,0,0,16,4.78h-.77a.18.18,0,0,1-.17-.18.18.18,0,0,1,.17-.17H16A.45.45,0,0,0,16.44,4Z" style="fill:#e85451"/><circle cx="10.93" cy="5.5" r="0.44" style="fill:#e85451"/><path d="M12,7h0a.48.48,0,0,0,.32-.13A.44.44,0,0,0,12,6.12h0a.43.43,0,0,0-.31.13.44.44,0,0,0,0,.62A.48.48,0,0,0,12,7Z" style="fill:#e85451"/><path d="M13,8.06a.44.44,0,0,0,.44-.44A.43.43,0,0,0,13,7.18a.44.44,0,0,0-.44.44A.44.44,0,0,0,13,8.06Z" style="fill:#e85451"/><path d="M10,6.79a.44.44,0,1,0,.44-.44A.44.44,0,0,0,10,6.79Z" style="fill:#e85451"/><path d="M11.07,7.85a.44.44,0,1,0,.44-.44A.44.44,0,0,0,11.07,7.85Z" style="fill:#e85451"/></svg>