<svg xmlns="http://www.w3.org/2000/svg" viewBox="0 0 24 24"><rect x="3.09" y="16.46" width="2.03" height="0.81" style="fill:#e85451"/><path d="M5.65,14.43l.81-2.84H6.05A3.26,3.26,0,0,0,7.14,9.16v-.4H6.73a3.17,3.17,0,0,0-1.45.36,3.29,3.29,0,0,0-.89-1.66L4.1,7.18l-.29.28a3.22,3.22,0,0,0-.88,1.65,3.34,3.34,0,0,0-1.46-.35H1.06v.4a3.27,3.27,0,0,0,1.12,2.43H1.74l.81,2.84H.25v6.89h.81v-2H7.14v2H8V14.43ZM5,11.2a2,2,0,0,0,.17-.4,2.1,2.1,0,0,0,.06-.24,2.14,2.14,0,0,0,.08-.44.5.5,0,0,0,0-.12h0a2.66,2.66,0,0,1,1-.41,2.44,2.44,0,0,1-1.38,1.79A1.34,1.34,0,0,0,5,11.2ZM3.68,9.67a2.5,2.5,0,0,1,.42-1.3,2.48,2.48,0,0,1,.43,1.34v.1a2,2,0,0,1-.08.48,2.39,2.39,0,0,1-.35.88,2.8,2.8,0,0,1-.32-.65,2.84,2.84,0,0,1-.1-.72ZM2.87,10s0,0,0,.06a3.78,3.78,0,0,0,.1.57l0,.11a2.89,2.89,0,0,0,.26.63h0A2.49,2.49,0,0,1,1.9,9.6,2.29,2.29,0,0,1,2.87,10ZM5.38,12.4l-.57,2H3.39l-.58-2H5.38Zm1.76,6.08H1.06V15.24H7.14Z" style="fill:#e85451"/><path d="M22.28,14h-.56V11.59a2.83,2.83,0,0,0-2.83-2.83H13.62a2.84,2.84,0,0,0-2.84,2.83V14h-.55a1.46,1.46,0,0,0-.66.16V8h2.87L12,2.68H6.36L5.88,8H8.76v11.9a1.47,1.47,0,0,0,1.47,1.47h.71a1.44,1.44,0,0,0,1-.39,1.26,1.26,0,0,0,.89.39h6.88a1.2,1.2,0,0,0,.89-.4,1.42,1.42,0,0,0,1,.4h.71a1.48,1.48,0,0,0,1.47-1.47V15.5A1.47,1.47,0,0,0,22.28,14ZM11.59,11.59a2,2,0,0,1,2-2h5.27a2,2,0,0,1,2,2v2.59l-.08.06-.14.09a1.9,1.9,0,0,0-.21.19,1.13,1.13,0,0,0-.1.13,1.35,1.35,0,0,0-.15.26l-.06.14a1.94,1.94,0,0,0-.07.42v.17h0a1.83,1.83,0,0,0-.5-.26l-.11,0a2.05,2.05,0,0,0-.56-.09H13.6a2,2,0,0,0-.55.09l-.12,0a1.77,1.77,0,0,0-.49.26h0V15.5c0-.05,0-.09,0-.13a1.55,1.55,0,0,0-.06-.31l-.07-.18-.12-.22L12,14.51l-.18-.17-.17-.11-.07-.05Zm.82,5.66a1.21,1.21,0,0,1,1.21-1.2h5.26a1.22,1.22,0,0,1,1.22,1.22v.4H12.41ZM6.77,7.14,7.1,3.49h4.13l.32,3.65H6.77Zm4.17,13.37h-.71a.67.67,0,0,1-.66-.66V15.5a.66.66,0,0,1,.66-.66l.71,0h.15a.44.44,0,0,1,.2.08.65.65,0,0,1,.3.55v1.78h0v2.6A.66.66,0,0,1,10.94,20.51Zm9.16-.41a.41.41,0,0,1-.41.41H12.81a.41.41,0,0,1-.41-.41v-.21s0,0,0,0V18.48H20.1V20.1Zm2.84-.25a.67.67,0,0,1-.66.66h-.71a.67.67,0,0,1-.66-.66V15.5a.36.36,0,0,1,0-.11.64.64,0,0,1,.48-.53l.09,0h.78a.66.66,0,0,1,.66.66Z" style="fill:#e85451"/></svg>