<svg xmlns="http://www.w3.org/2000/svg" viewBox="0 0 24 24"><path d="M19.71.25H4.3A1.62,1.62,0,0,0,2.68,1.86v19A1.62,1.62,0,0,0,4.3,22.46H5.52v.43a.87.87,0,0,0,.86.86h.5a.87.87,0,0,0,.86-.86v-.43h8.54v.43a.86.86,0,0,0,.85.86h.5a.87.87,0,0,0,.86-.86v-.43h1.22a1.62,1.62,0,0,0,1.61-1.61v-19A1.61,1.61,0,0,0,19.71.25ZM7,22.89a.1.1,0,0,1-.1.1H6.38a.1.1,0,0,1-.09-.1v-.43H7Zm10.74,0a.1.1,0,0,1-.09.1h-.49a.1.1,0,0,1-.1-.1v-.43h.68ZM3.7,1.27A.83.83,0,0,1,4.29,1h13c1.6,0,2.19,0,2.41,0V1a.85.85,0,0,1,.85.84V4.13H3.45V1.86A.82.82,0,0,1,3.7,1.27Zm16,20.42H4.3a.85.85,0,0,1-.85-.84V4.9H20.56v16A.85.85,0,0,1,19.71,21.69Z" style="fill:#e85451"/><path d="M12,6.74h0a6.56,6.56,0,1,0,4.65,1.92A6.57,6.57,0,0,0,12,6.74ZM12,19.1h0a5.8,5.8,0,0,1-5.8-5.8A5.8,5.8,0,0,1,12,7.5h.1A5.8,5.8,0,0,1,12,19.1Z" style="fill:#e85451"/><path d="M12,8.42A4.86,4.86,0,0,0,7.16,13a.37.37,0,0,0,0,.18.29.29,0,0,0,0,.09s0,0,0,.08a4.87,4.87,0,0,0,9.73.31.48.48,0,0,0,0-.17s0,0,0-.08V13.3A4.89,4.89,0,0,0,12,8.42Zm0,.77a4.11,4.11,0,0,1,4.09,3.86,6.94,6.94,0,0,1-1-.13,10.33,10.33,0,0,0-1.58-.18,10.21,10.21,0,0,0-1.56.18,6.47,6.47,0,0,1-2.87,0,10.4,10.4,0,0,0-1.12-.15A4.1,4.1,0,0,1,12,9.19Zm0,8.23a4.1,4.1,0,0,1-4.09-3.88c.34,0,.68.07,1,.13a7,7,0,0,0,3.15,0,6.57,6.57,0,0,1,2.86,0,8.75,8.75,0,0,0,1.13.15A4.1,4.1,0,0,1,12,17.42Z" style="fill:#e85451"/><path d="M5.38,3.79A1.21,1.21,0,1,0,4.17,2.58,1.21,1.21,0,0,0,5.38,3.79Zm0-1.66h0a.51.51,0,0,1,.29.13.48.48,0,0,1,.13.32A.45.45,0,0,1,5.38,3a.45.45,0,1,1,0-.9Z" style="fill:#e85451"/><path d="M8.69,3.79A1.21,1.21,0,1,0,7.48,2.58,1.22,1.22,0,0,0,8.69,3.79Zm0-1.66h0a.45.45,0,0,1,.41.45.45.45,0,1,1-.45-.45Z" style="fill:#e85451"/><path d="M12,3.79a1.21,1.21,0,1,0-1.21-1.21A1.22,1.22,0,0,0,12,3.79Zm0-1.66h0a.52.52,0,0,1,.28.13.48.48,0,0,1,.13.32A.45.45,0,1,1,12,2.13Z" style="fill:#e85451"/><path d="M14.48,3h1.79v0a.37.37,0,0,0,.24-.33.4.4,0,0,0-.36-.41H14.48a.39.39,0,0,0-.38.39A.38.38,0,0,0,14.48,3Z" style="fill:#e85451"/><path d="M17.79,3h1.79v0a.39.39,0,0,0,.24-.33.4.4,0,0,0-.37-.41H17.79a.39.39,0,0,0-.38.39A.38.38,0,0,0,17.79,3Z" style="fill:#e85451"/></svg>