<svg xmlns="http://www.w3.org/2000/svg" viewBox="0 0 24 24"><path d="M22.09,22.56a.46.46,0,0,0,.47-.46v-9h.72a.47.47,0,0,0,0-.94h-9V10.69h4.29a.47.47,0,0,0,.46-.47V1.9a.46.46,0,0,0-.46-.46H5.46A.47.47,0,0,0,5,1.9v8.32a.47.47,0,0,0,.46.47H9.75v1.44h-9a.47.47,0,0,0,0,.94h.72v9a.47.47,0,0,0,.93,0V20.19H21.63V22.1A.46.46,0,0,0,22.09,22.56ZM5.93,9.75V2.37H18.06V9.75Zm7.38.94v1.44H10.68V10.69Zm-1.79,8.57H2.36V13.07h9.16Zm1,0V13.06h9.16v6.19Z" style="fill:#e85451"/><path d="M9,14.5a.47.47,0,0,0-.47.47v1.19a.47.47,0,0,0,.47.47.46.46,0,0,0,.46-.47V15A.47.47,0,0,0,9,14.5Z" style="fill:#e85451"/><path d="M15,14.5a.47.47,0,0,0-.47.47v1.19a.47.47,0,1,0,.93,0V15A.47.47,0,0,0,15,14.5Z" style="fill:#e85451"/></svg>