<svg xmlns="http://www.w3.org/2000/svg" viewBox="0 0 24 24"><path d="M19.17,15.25l-5.14-1v-.65a5.66,5.66,0,0,0,1.7-1.3,3.4,3.4,0,0,0,1.94.53,4.79,4.79,0,0,0,3.12-1.34.4.4,0,0,0,0-.57l-.12-.08a1.44,1.44,0,0,1-.93-1.25C19.7,5.29,18.36,0,14.19,1A2.82,2.82,0,0,0,12,.26a10.52,10.52,0,0,0-4.94,1C4.67,2.81,4.3,7.15,4.3,9.57a1.46,1.46,0,0,1-.93,1.26.41.41,0,0,0-.24.52.57.57,0,0,0,.08.13,4.78,4.78,0,0,0,3.12,1.33,3.32,3.32,0,0,0,1.94-.52A5.48,5.48,0,0,0,10,13.58v.65l-5.14,1a3.61,3.61,0,0,0-2.92,3l-.85,5.06a.45.45,0,0,0,.41.49H22.53a.45.45,0,0,0,.41-.48h0l-.85-5.06a3.61,3.61,0,0,0-2.92-3ZM8,15.45l.77-.16,3,2.23a.42.42,0,0,0,.48,0l3.12-2.23.77.16v2.63a1.17,1.17,0,0,1-1.13,1.22H9.16A1.17,1.17,0,0,1,8,18.17V15.45Zm8.91-9H17a1.2,1.2,0,0,1,.69,1.13,1.17,1.17,0,0,1-.81,1.14ZM6.33,12a3.73,3.73,0,0,1-2.11-.73,2.15,2.15,0,0,0,.89-1.7c0-1.82.25-6.24,2.39-7.62A9.31,9.31,0,0,1,12,1.07c1.42,0,1.66.57,1.66.57a.36.36,0,0,0,.47.21h0c3.56-1.25,4.74,4,4.74,7.74a2.15,2.15,0,0,0,.89,1.7,3.76,3.76,0,0,1-2.11.73,2.07,2.07,0,0,1-1.46-.41,4.84,4.84,0,0,0,.65-2.06,2,2,0,0,0-.41-4,.4.4,0,0,0-.4.4h0v.41c-.69-.25-1.78-.77-2-1.7a.41.41,0,0,0-.47-.33.44.44,0,0,0-.26.17,3.93,3.93,0,0,1-2.18,1.45A18.73,18.73,0,0,1,8,6.34c0-.29.08-.57-.16-.73l-.25-.08a2,2,0,0,0-.41,4,5,5,0,0,0,.65,2.06A2.07,2.07,0,0,1,6.32,12Zm.81-3.32a1.17,1.17,0,0,1-.81-1.14,1.24,1.24,0,0,1,.53-1l.28-.12ZM8,9.17v-2a20.49,20.49,0,0,0,3.32-.41A5,5,0,0,0,13.5,5.49a4.89,4.89,0,0,0,2.55,1.7v2a4.05,4.05,0,0,1-8.1,0ZM10.46,15a.41.41,0,0,0,.33-.4v-.69a4.56,4.56,0,0,0,2.43,0v.69a.39.39,0,0,0,.32.4l.65.13-2.27,1.62L9.77,15.09ZM2.72,18.33A2.92,2.92,0,0,1,5,16l.56-.08v7H2Zm3.61,4.61V15.78l.81-.17v2.47a2,2,0,0,0,2,2h5.68a2,2,0,0,0,2-2h0V15.61l.81.17v7.16Zm12.15,0v-7l.57.08a2.91,2.91,0,0,1,2.23,2.31l.77,4.61Z" style="fill:#e85451"/></svg>