<svg xmlns="http://www.w3.org/2000/svg" viewBox="0 0 24 24"><path d="M23.71,5.8a1,1,0,0,0-.79-.35H22.6A1.6,1.6,0,0,0,21,6.91l-.34,4a.67.67,0,0,1-.67.61H17a1.74,1.74,0,0,0-1.75,1.74v.18a1.06,1.06,0,0,0,1.06,1h.64l-.63,2.07h0l-.48,1.58a.34.34,0,0,0,.23.44.36.36,0,0,0,.44-.23L16.9,17h4.82l.4,1.34a.36.36,0,0,0,.68-.21l-1.15-3.75a3.23,3.23,0,0,0,.58-.24.37.37,0,0,0,.13-.48.35.35,0,0,0-.48-.13,1.94,1.94,0,0,1-.94.25H16.29a.35.35,0,0,1-.35-.35h0v-.18a1,1,0,0,1,1-1h3a1.35,1.35,0,0,0,1.37-1.25l.35-4a.9.9,0,0,1,.9-.82h.32a.38.38,0,0,1,.38.38v0L22.82,12a1.69,1.69,0,0,1-.08.39.34.34,0,0,0,.23.44.35.35,0,0,0,.44-.23,3.23,3.23,0,0,0,.11-.54L24,6.62A1.08,1.08,0,0,0,23.71,5.8Zm-6,8.65h3.27l.56,1.82H17.11Z" style="fill:#e85451"/><path d="M7,11.48H4a.67.67,0,0,1-.67-.62L3,6.91a1.61,1.61,0,0,0-1.6-1.47H1.08A1.08,1.08,0,0,0,0,6.52v.1l.48,5.47a2.6,2.6,0,0,0,1.87,2.26L1.2,18.1a.36.36,0,0,0,.24.44.34.34,0,0,0,.43-.24L2.28,17H7.11l.41,1.33a.35.35,0,0,0,.44.24.35.35,0,0,0,.23-.44l-.48-1.58h0l-.64-2.06h.65a1.05,1.05,0,0,0,1-1.06v-.17A1.74,1.74,0,0,0,7,11.48ZM2.5,16.27l.56-1.82H6.34l.55,1.82ZM8.06,13.4a.35.35,0,0,1-.35.35H3.06l-.22,0h0A1.86,1.86,0,0,1,1.19,12L.71,6.56a.37.37,0,0,1,.34-.41h.36a.9.9,0,0,1,.9.83l.34,3.95h0A1.37,1.37,0,0,0,4,12.18H7a1,1,0,0,1,1.05,1v.18Z" style="fill:#e85451"/><path d="M14.67,17.4a1.27,1.27,0,0,0-1.22-.95h-.22v-6.4h4.33a.83.83,0,0,0,.83-.83.88.88,0,0,0,0-.16,1.59,1.59,0,0,0-1.56-1.27H9.5a.35.35,0,0,0,0,.7h7.31a.9.9,0,0,1,.87.71.12.12,0,0,1-.1.14H6.45a.13.13,0,0,1-.13-.13v0a.88.88,0,0,1,.86-.71h.66a.35.35,0,1,0,0-.7H7.19A1.58,1.58,0,0,0,5.64,9.06a.82.82,0,0,0,.64,1l.17,0h4.32v6.4h-.21a1.25,1.25,0,0,0-1.22.94l-.09.32a.68.68,0,0,0,.49.82l.17,0h4.2a.67.67,0,0,0,.67-.67,1,1,0,0,0,0-.17Zm-3.19-7.35h1v6.4h-1Zm-1.54,7.8.07-.28a.57.57,0,0,1,.55-.42h2.88a.57.57,0,0,1,.55.42l.07.28Z" style="fill:#e85451"/></svg>