<svg xmlns="http://www.w3.org/2000/svg" viewBox="0 0 24 24"><path d="M21.61.25H2.39A2.14,2.14,0,0,0,.25,2.39V21.61a2.14,2.14,0,0,0,2.14,2.14H21.61a2.14,2.14,0,0,0,2.14-2.14V2.39A2.14,2.14,0,0,0,21.61.25Zm1.07,21.36a1.07,1.07,0,0,1-1.07,1.07H2.39a1.07,1.07,0,0,1-1.07-1.07V2.39A1.07,1.07,0,0,1,2.39,1.32H21.61a1.07,1.07,0,0,1,1.07,1.07Z" style="fill:#e85451"/><path d="M20,7.73H4a.53.53,0,0,0-.54.53h0V20a.54.54,0,0,0,.54.54H20a.54.54,0,0,0,.53-.54h0V8.26A.53.53,0,0,0,20,7.73Zm-.53,11.75h-15V8.8h15Z" style="fill:#e85451"/><path d="M7.19,10.93h9.62a.54.54,0,0,0,.56-.51.55.55,0,0,0-.51-.56H7.19a.55.55,0,0,0-.56.51.54.54,0,0,0,.51.56Z" style="fill:#e85451"/><path d="M8.26,6.66h7.47a.54.54,0,0,0,.54-.53h0V4a.54.54,0,0,0-.53-.54H8.26A.54.54,0,0,0,7.72,4h0V6.12a.54.54,0,0,0,.54.54ZM8.8,4.52h6.41V5.59H8.8Z" style="fill:#e85451"/><path d="M18.94,3.45a1.61,1.61,0,1,0,1.6,1.61h0A1.61,1.61,0,0,0,18.94,3.45Zm0,2.14a.54.54,0,1,1,.54-.53.53.53,0,0,1-.54.53Z" style="fill:#e85451"/><path d="M5.06,6.66a1.61,1.61,0,1,0-1.61-1.6h0A1.61,1.61,0,0,0,5.06,6.66Zm0-2.14a.54.54,0,1,1-.54.54h0A.54.54,0,0,1,5.06,4.52Z" style="fill:#e85451"/></svg>