<svg xmlns="http://www.w3.org/2000/svg" viewBox="0 0 24 24"><path d="M21.92,11.81,12.61,3.56,12,3l-.61.54L9.65,5.09V5H6V8.33l-3.9,3.48L.25,13.43H3.8V21H20.2V13.43h3.55Zm-2.66.68V20H4.74V12.49h-2L7,8.76V6H8.76v1.2L12,4.27l9.31,8.25h-2Z" style="fill:#e85451"/><path d="M15,10.84a2.48,2.48,0,0,0-2.47-2.48H12a.29.29,0,0,0-.28.28h0v2.29a2.47,2.47,0,0,0-4.39,1.56V13a.27.27,0,0,0,.27.27H9.9a2.47,2.47,0,0,0,1.55,4.4H12a.28.28,0,0,0,.28-.28h0V15.14a2.47,2.47,0,0,0,4.39-1.55V13a.27.27,0,0,0-.27-.28H14.1A2.45,2.45,0,0,0,15,10.84ZM12.55,8.91a1.93,1.93,0,0,1,.75,3.7,1.36,1.36,0,0,0-1-.92V8.91Zm-.5,4.95a.83.83,0,1,1,.77-.88s0,0,0,.06a.83.83,0,0,1-.78.82ZM7.88,12.49a1.92,1.92,0,0,1,3.69-.76,1.38,1.38,0,0,0-.91,1H7.88Zm3.57,4.67a1.93,1.93,0,0,1-.75-3.7,1.36,1.36,0,0,0,1,.92v2.78Zm4.67-3.58a1.92,1.92,0,0,1-3.69.76,1.38,1.38,0,0,0,.92-1h2.78Z" style="fill:#e85451"/></svg>