<svg xmlns="http://www.w3.org/2000/svg" viewBox="0 0 24 24"><path d="M23.32,1.14H14a.44.44,0,0,0-.43.44V5.94a.44.44,0,0,0,.46.41.44.44,0,0,0,.41-.41V2h8.45V22H19.5a.43.43,0,0,0-.45.41.44.44,0,0,0,.41.46h3.86a.43.43,0,0,0,.43-.43h0V1.58A.44.44,0,0,0,23.32,1.14Z" style="fill:#e85451"/><path d="M22,3.31a.43.43,0,0,0-.43-.43H15.73a.43.43,0,0,0-.43.43V6a.44.44,0,0,0,.43.44h5.86A.44.44,0,0,0,22,6h0Zm-.87,2.26h-5V3.74h5Z" style="fill:#e85451"/><path d="M22,13.1a.44.44,0,1,0-.87,0v2.74a.43.43,0,0,0,.41.45.44.44,0,0,0,.46-.41V13.1Z" style="fill:#e85451"/><path d="M6.87,9.57H7a.51.51,0,0,0,.17,0A.43.43,0,0,0,7.44,9L5.56,4.28A.44.44,0,0,0,5.15,4H2.56a.44.44,0,0,0-.4.28L.28,9a.44.44,0,0,0,.24.57.45.45,0,0,0,.16,0H3.36V22.39a.45.45,0,0,0,.42.46.43.43,0,0,0,.45-.41V9.57Zm-4-4.7h2L6.39,8.7H1.32Z" style="fill:#e85451"/><path d="M20.52,15.08a1.75,1.75,0,0,0-.6-1.67A1.63,1.63,0,0,0,18.16,13c.25-1.9.24-4.06-.84-5.05-1.49-1.38-6.68-1.38-8.17,0-1.09,1-1.08,3.22-.82,5.14a1.62,1.62,0,0,0-2,.36,1.75,1.75,0,0,0-.6,1.67,3.37,3.37,0,0,0,1.5,2l.09,3.19a.43.43,0,0,0,.44.42h0L8,22.48a.44.44,0,0,0,.43.38h.69a.44.44,0,0,0,.43-.38l.23-1.79a.37.37,0,0,0,.3-.14h6a.41.41,0,0,0,.3.14l.23,1.79a.44.44,0,0,0,.43.38h.69a.44.44,0,0,0,.43-.38l.23-1.79h0a.43.43,0,0,0,.43-.42L19,17.08a3.37,3.37,0,0,0,1.5-2ZM9.75,8.54c1.17-1.09,5.81-1.09,7,0,.91.84.77,3.2.43,5.16l-.2.2a3.11,3.11,0,0,0-.9,1.9H10.22A3.07,3.07,0,0,0,9.36,14c-.37-2-.56-4.53.39-5.41Zm6.3,8.12v.81H10.24v-.81Zm-5.81,1.68h5.81v1.34H10.24ZM6.61,14.93A1,1,0,0,1,7,14a.79.79,0,0,1,1.11-.15.54.54,0,0,1,.15.15l.17.17.31.3a2.3,2.3,0,0,1,.67,1.62v3.7H8.21l-.09-3a.44.44,0,0,0-.26-.39,2.7,2.7,0,0,1-1.25-1.49Zm2.08,5.76H9l-.13,1Zm8.78,1-.13-1h.25Zm1-5.27a.43.43,0,0,0-.27.39l-.09,3H16.92v-3.7a2.25,2.25,0,0,1,.66-1.62l.3-.29.19-.19a.79.79,0,0,1,1.11-.13.67.67,0,0,1,.15.14.92.92,0,0,1,.34.89,2.72,2.72,0,0,1-1.24,1.49Z" style="fill:#e85451"/></svg>