<svg xmlns="http://www.w3.org/2000/svg" viewBox="0 0 24 24"><path d="M21.92,11.81,12.61,3.56,12,3l-.61.54L9.65,5.09V5H6V8.33l-3.9,3.48L.25,13.43H3.8V21H20.2V13.43h3.55Zm-2.66.68V20H4.74V12.49h-2L7,8.76V6H8.76v1.2L12,4.27l9.31,8.25h-2Z" style="fill:#e85451"/><path d="M9.63,17.73a.36.36,0,0,1-.26-.11.36.36,0,0,1,0-.5,1.71,1.71,0,0,0,0-2.65,2.42,2.42,0,0,1-.26-3.41,1.92,1.92,0,0,1,.29-.28.35.35,0,0,1,.49,0,.35.35,0,0,1,0,.48,1.72,1.72,0,0,0,0,2.66,2.41,2.41,0,0,1,.26,3.4,2.65,2.65,0,0,1-.29.29A.33.33,0,0,1,9.63,17.73Z" style="fill:#e85451"/><path d="M11.86,17.76a.42.42,0,0,1-.26-.12.38.38,0,0,1,0-.5,1.71,1.71,0,0,0,.64-1.31,1.85,1.85,0,0,0-.61-1.34,2.4,2.4,0,0,1-.27-3.4,2.65,2.65,0,0,1,.29-.29.34.34,0,0,1,.49,0,.35.35,0,0,1,0,.48,1.74,1.74,0,0,0-.63,1.31A1.8,1.8,0,0,0,12.12,14a2.42,2.42,0,0,1,.27,3.4,2.06,2.06,0,0,1-.3.29A.33.33,0,0,1,11.86,17.76Z" style="fill:#e85451"/><path d="M14.33,17.78a.37.37,0,0,1-.26-.12.35.35,0,0,1,0-.49,1.72,1.72,0,0,0,0-2.66,2.41,2.41,0,0,1-.26-3.4,2.65,2.65,0,0,1,.29-.29.34.34,0,0,1,.49,0,.35.35,0,0,1,0,.49,1.71,1.71,0,0,0,0,2.65,2.42,2.42,0,0,1,.26,3.41,1.92,1.92,0,0,1-.29.28A.26.26,0,0,1,14.33,17.78Z" style="fill:#e85451"/></svg>