<svg xmlns="http://www.w3.org/2000/svg" viewBox="0 0 24 24"><path d="M4.21.94H19.79V13.38h.69V.6a.33.33,0,0,0-.33-.35H3.86a.34.34,0,0,0-.35.33v12.8h.7Z" style="fill:#e85451"/><path d="M18.73,13.41V2.35A.34.34,0,0,0,18.4,2H5.62a.34.34,0,0,0-.35.33h0v11H6V2.73h5.67V13.41h.69V2.72H18V13.41Z" style="fill:#e85451"/><path d="M22.76,23.06H21.65V15.22h1.11a.35.35,0,0,0,.35-.35.35.35,0,0,0-.35-.34H1.24a.35.35,0,0,0-.35.34.35.35,0,0,0,.35.35H2.35v7.84H1.24a.35.35,0,0,0-.35.34.35.35,0,0,0,.35.35H22.76a.35.35,0,0,0,.35-.35A.35.35,0,0,0,22.76,23.06Zm-1.81,0H19V15.22H21ZM8.36,15.22h2v7.84h-2Zm-.69,7.84H5.72V15.22h2ZM11,15.22h2v7.84H11Zm2.65,0h2v7.84h-2Zm2.65,0h2v7.84h-2Zm-13.28,0H5v7.84H3.05Z" style="fill:#e85451"/></svg>