<svg xmlns="http://www.w3.org/2000/svg" viewBox="0 0 64 64"><path d="M46.91,13.75H17.09a3.35,3.35,0,0,0-3.34,3.35V46.91a3.35,3.35,0,0,0,3.34,3.34H46.91a3.35,3.35,0,0,0,3.34-3.34V17.09A3.35,3.35,0,0,0,46.91,13.75Zm2.61,33.16a2.61,2.61,0,0,1-2.61,2.61H17.09a2.61,2.61,0,0,1-2.61-2.61V17.09a2.61,2.61,0,0,1,2.61-2.61H46.91a2.61,2.61,0,0,1,2.61,2.61Z" style="fill:#0984E3"/><path d="M29.32,20.9a.38.38,0,0,0-.37.37v6.79H26.1V21.27a.36.36,0,1,0-.72,0v6.79H22.53V21.27a.38.38,0,0,0-.37-.37.37.37,0,0,0-.36.37v7.15a3.93,3.93,0,0,0,1.5,3.1l.29.22v9.2a2.15,2.15,0,0,0,4.3,0v-9.2l.28-.22a4,4,0,0,0,1.51-3.1V21.27A.38.38,0,0,0,29.32,20.9Z" style="fill:#0984E3"/><path d="M36.47,20.9a.37.37,0,0,0-.36.37V40.94a2.13,2.13,0,0,0,2.14,2.16h0A2.15,2.15,0,0,0,40.41,41V31.88h1.42a.37.37,0,0,0,.37-.36V26.63A5.76,5.76,0,0,0,36.47,20.9Z" style="fill:#0984E3"/></svg>