<svg id="Layer_1" data-name="Layer 1" xmlns="http://www.w3.org/2000/svg" viewBox="0 0 36 36"><defs><style>.cls-1{fill:#e85451;}</style></defs><path class="cls-1" d="M15.93,35.33a14.64,14.64,0,0,0,1.74.17H18a12.34,12.34,0,0,0,10.3-5.56,12.47,12.47,0,0,0,1.07-11.7,13,13,0,0,0-1.14-2.11L27,14.06c-2.48-4.1-4.82-8-3.85-12.18a1,1,0,0,0,0-.6,1.08,1.08,0,0,0-.87-.76,1,1,0,0,0-.6.06,13.65,13.65,0,0,0-7.49,8.14,8.23,8.23,0,0,0-5-2.94,1.07,1.07,0,0,0-.56.09,1.14,1.14,0,0,0-.45.36,1.21,1.21,0,0,0-.22.54A1.11,1.11,0,0,0,8,7.34a12,12,0,0,1-.44,9.13,12.56,12.56,0,0,0-.71,1.3l0,.09A12.31,12.31,0,0,0,5.65,23.1,12.41,12.41,0,0,0,15.93,35.33Zm-3.42-7.08a7.82,7.82,0,0,1,3.37-6.1,10.66,10.66,0,0,0,2.22-2.47,12.73,12.73,0,0,1,4.38,8.57,5,5,0,0,1-4.79,5,8.44,8.44,0,0,1-1.33-.13,5,5,0,0,1-3.85-4.87ZM8.84,18.76h0a9.52,9.52,0,0,1,.62-1.13.6.6,0,0,0,.06-.11,14.08,14.08,0,0,0,1.15-8.83,7.27,7.27,0,0,1,3.14,4,1.12,1.12,0,0,0,1.41.7,1.09,1.09,0,0,0,.64-.55,1.07,1.07,0,0,0,.08-.84c-.43-1.57,1.21-6,4.72-8.35-.09,4.18,2.18,8,4.4,11.62.41.68.84,1.38,1.24,2.07l0,.07a10.62,10.62,0,0,1,1,1.75h0a10.28,10.28,0,0,1,.45,6.59,10.16,10.16,0,0,1-3.67,5.48,7.29,7.29,0,0,0,.62-3,15.33,15.33,0,0,0-6.57-11.41,1.16,1.16,0,0,0-.57-.21,1.11,1.11,0,0,0-.59.13,1,1,0,0,0-.44.41,1.12,1.12,0,0,0-.17.59c0,.87-.75,1.6-2,2.73a10,10,0,0,0-2.95,3.4,10.08,10.08,0,0,0-1.16,4.36,6.77,6.77,0,0,0,.19,1.62A10.07,10.07,0,0,1,8,24.56a10.27,10.27,0,0,1,.85-5.81Z"/></svg>