<svg xmlns="http://www.w3.org/2000/svg" viewBox="0 0 64 64"><path d="M54.64,31.49,37.45,14.66v-.07a.49.49,0,0,0-.14-.35.5.5,0,0,0-.5-.13.51.51,0,0,0-.51.13.54.54,0,0,0-.14.35v.07l-17,16.62c-.77-2.87-2.63-4.9-4.81-4.9-2.85,0-5.17,3.49-5.17,7.77,0,4,2,7.24,4.55,7.7v7.82h1V41.88c2.68-.29,4.8-3.65,4.8-7.73a11.86,11.86,0,0,0-.15-1.82.46.46,0,0,0,.26-.13l4-3.94V49.91h26V28l4.26,4.17a.5.5,0,0,0,.35.15.51.51,0,0,0,.36-.15.49.49,0,0,0,.14-.35A.51.51,0,0,0,54.64,31.49ZM14.76,40.88V37.05l2.32-2.13-.68-.74-1.64,1.51V33.06h-1v2.68L12.22,34.2l-.71.71,2.25,2.25v3.67c-2-.49-3.55-3.29-3.55-6.68,0-3.73,1.87-6.77,4.17-6.77s4.18,3,4.18,6.77C18.56,37.67,16.89,40.57,14.76,40.88Zm33.92,8h-24V27.28L36.81,15.44,48.68,27.05Z" style="fill:#0984E3"/></svg>