<svg xmlns="http://www.w3.org/2000/svg" viewBox="0 0 64 64"><path d="M50.67,31.67,32.75,13.75h0L32,13l-.37.37h0l-18.3,18.3.75.75,4-4V51H45.66V28.16l4.26,4.26ZM44.6,49.94H19.15V27.35L32,14.5,44.6,27.1Z" style="fill:#0984E3"/><path d="M41.5,28.6v4.75h-.83A2.78,2.78,0,0,0,37.93,31H29.62v2.38h-1a1.57,1.57,0,0,0,.22-.79A1.58,1.58,0,0,0,27.25,31H24.87a1.58,1.58,0,0,0-1.58,1.58,1.6,1.6,0,0,0,.22.8h-1V28.6H20.13V49.18H22.5V46.8h19v2.38h2.37V28.6ZM24.87,31.77h2.38a.79.79,0,1,1,0,1.58H24.87a.79.79,0,1,1,0-1.58Zm-3.95-2.38h.79v4h-.79Zm0,7.91h.79v5.54h-.79Zm.79,11.09h-.79V46.8h.79Zm21.37,0h-.79V46.8h.79Zm0-2.38H20.92V43.63h8.7v1.58H40.71V43.64h2.38Zm-5.15-5.53H29.62v2.37h-1a1.57,1.57,0,0,0-1.36-2.37H24.87a1.58,1.58,0,0,0-1.58,1.58,1.57,1.57,0,0,0,.22.79h-1V37.31h19v5.54h-.83A2.77,2.77,0,0,0,37.93,40.48ZM28,42.05a.8.8,0,0,1-.79.8H24.87a.8.8,0,1,1,0-1.59h2.38a.79.79,0,0,1,.79.79h0Zm15,.8h-.79V37.31h.79Zm0-6.34H20.92V34.14h8.7v1.58H40.71V34.14h2.38Zm0-3.16h-.79v-4h.79Z" style="fill:#0984E3"/></svg>