<svg xmlns="http://www.w3.org/2000/svg" viewBox="0 0 64 64"><path d="M42.3,28.65H41.07L40.3,17.41a.4.4,0,0,0-.4-.37H37.5a.4.4,0,0,0-.4.37l-.78,11.24H35.5v-2.4a.4.4,0,0,0-.4-.4.38.38,0,0,0-.25.09l-3.36,2.68V26.25a.4.4,0,0,0-.4-.4.38.38,0,0,0-.25.09l-3.36,2.68V26.25a.39.39,0,0,0-.4-.4.38.38,0,0,0-.25.09l-3.35,2.68V26.25a.4.4,0,0,0-.4-.4.39.39,0,0,0-.21.06l-4,2.4a.4.4,0,0,0-.2.34v9.61a.39.39,0,0,0,.4.4H42.3a.39.39,0,0,0,.4-.4h0V29.05a.4.4,0,0,0-.4-.4ZM37.87,17.84h1.65l.75,10.81H37.12Zm-5.58,20v-4.8h2.4v4.8Zm9.61,0H35.49v-5.2a.4.4,0,0,0-.4-.4h-3.2a.4.4,0,0,0-.4.4h0v5.2h-12v-9L22.67,27v2.5a.4.4,0,0,0,.4.4.38.38,0,0,0,.25-.09l3.36-2.68v2.37a.39.39,0,0,0,.4.4.38.38,0,0,0,.25-.09l3.35-2.68v2.37a.4.4,0,0,0,.4.4.38.38,0,0,0,.25-.09l3.36-2.68v2a.4.4,0,0,0,.4.4H41.9v8.41Z" style="fill:#0984E3"/><path d="M32.29,15.44a1.57,1.57,0,0,1,.38.3,1.46,1.46,0,0,0,.9.5,1.44,1.44,0,0,0,.94-.52,1.81,1.81,0,0,1,.34-.28c.08,0,.3.2.42.31a1.33,1.33,0,0,0,.86.49,1.59,1.59,0,0,0,1-.55l.27-.25c.22,0,.27.07.4.26a1,1,0,0,0,.89.54.4.4,0,1,0,0-.8c-.08,0-.1,0-.23-.19a1.17,1.17,0,0,0-1.06-.61,1.29,1.29,0,0,0-.82.46c-.13.13-.36.34-.44.34a1.76,1.76,0,0,1-.34-.27,1.5,1.5,0,0,0-1-.53,1.37,1.37,0,0,0-.88.49,1.9,1.9,0,0,1-.39.31,1.93,1.93,0,0,1-.36-.28,1.44,1.44,0,0,0-.93-.52.4.4,0,0,0,0,.8Z" style="fill:#0984E3"/><path d="M23.08,33.06h-1.6a.39.39,0,0,0-.4.4v2.4a.39.39,0,0,0,.4.4h1.6a.4.4,0,0,0,.4-.4v-2.4A.4.4,0,0,0,23.08,33.06Z" style="fill:#0984E3"/><path d="M26.28,33.06h-1.6a.4.4,0,0,0-.4.4v2.4a.4.4,0,0,0,.4.4h1.6a.4.4,0,0,0,.4-.4v-2.4A.4.4,0,0,0,26.28,33.06Z" style="fill:#0984E3"/><path d="M29.48,33.06h-1.6a.4.4,0,0,0-.4.4v2.4a.4.4,0,0,0,.4.4h1.6a.4.4,0,0,0,.4-.4v-2.4A.4.4,0,0,0,29.48,33.06Z" style="fill:#0984E3"/><path d="M50.68,42.38l-11-2.47a3.52,3.52,0,0,0-2.85.6l-1.4,1A3.51,3.51,0,0,0,34.33,43l-.08.19A2.46,2.46,0,0,1,31,44.39a2.42,2.42,0,0,1-1.25-1.25L29.66,43a3.41,3.41,0,0,0-1.12-1.4l-1.4-1a3.53,3.53,0,0,0-2.85-.6l-11,2.47a.53.53,0,0,0-.41.51v6a.52.52,0,0,0,.52.52H50.56a.52.52,0,0,0,.52-.52h0v-6A.53.53,0,0,0,50.68,42.38ZM50,48.32H14v-5l10.56-2.38a2.45,2.45,0,0,1,2,.42l1.4,1a2.42,2.42,0,0,1,.79,1l.09.19a3.5,3.5,0,0,0,4.61,1.79,3.55,3.55,0,0,0,1.79-1.79l.08-.19a2.53,2.53,0,0,1,.79-1l1.4-1a2.45,2.45,0,0,1,2-.42L50,43.31Z" style="fill:#0984E3"/></svg>