<svg xmlns="http://www.w3.org/2000/svg" viewBox="0 0 64 64"><rect x="34.61" y="35.68" width="4" height="6" style="fill:#0984E3"/><rect x="34.61" y="27.68" width="4" height="5" style="fill:#0984E3"/><rect x="34.61" y="18.68" width="4" height="5" style="fill:#0984E3"/><rect x="26.61" y="18.68" width="4" height="5" style="fill:#0984E3"/><rect x="26.61" y="27.68" width="4" height="5" style="fill:#0984E3"/><rect x="26.61" y="35.68" width="4" height="6" style="fill:#0984E3"/><path d="M52,52.63H50.51V26.36a.44.44,0,0,0-.43-.35H43.31V14.93a.41.41,0,0,0-.43-.35H40.32V11a.43.43,0,0,0-.43-.35H24.82a.42.42,0,0,0-.45.38v3.54H21.83a.42.42,0,0,0-.46.38V31.85H15.62a.42.42,0,0,0-.45.38v20.4H12.1a.44.44,0,0,0-.32.07.34.34,0,0,0-.13.24.33.33,0,0,0,.07.27.36.36,0,0,0,.24.13H51.9a.45.45,0,0,0,.32-.07.38.38,0,0,0,.13-.24A.35.35,0,0,0,52,52.63Zm-30.67,0H16.08V32.56h5.29Zm3.91-41.27H39.4v3.22H25.28ZM42.4,52.63H36.64V46.5a.42.42,0,0,0-.43-.35h-7.7a.43.43,0,0,0-.46.38v6.1H22.29V15.28H42.4Zm7.19,0H43.31V26.72h6.28Z" style="fill:#0984E3"/></svg>