<svg width="29" height="29" viewBox="0 0 29 29" fill="none" xmlns="http://www.w3.org/2000/svg">
<path d="M24.9668 14.3727H24.9392L22.7523 9.45203C22.548 8.9932 22.2151 8.6034 21.794 8.32977C21.3728 8.05613 20.8814 7.91039 20.3791 7.91016H8.7799C8.27768 7.91042 7.78629 8.05619 7.36515 8.32982C6.94402 8.60345 6.61118 8.99323 6.40688 9.45203L4.21981 14.3727H4.19216C3.73317 14.3732 3.29313 14.5558 2.96857 14.8803C2.64401 15.2049 2.46145 15.6449 2.46094 16.1039V22.1632C2.46145 22.6222 2.64401 23.0622 2.96857 23.3868C3.29313 23.7114 3.73317 23.8939 4.19216 23.8944V26.088C4.19256 26.4322 4.32949 26.7623 4.5729 27.0057C4.81631 27.2491 5.14634 27.386 5.49058 27.3864H8.52022C8.86446 27.386 9.19448 27.2491 9.43789 27.0057C9.68131 26.7623 9.81823 26.4322 9.81863 26.088V23.8944H19.3404V26.088C19.3408 26.4322 19.4777 26.7623 19.7211 27.0057C19.9645 27.2491 20.2945 27.386 20.6388 27.3864H23.6684C24.0127 27.386 24.3427 27.2491 24.5861 27.0057C24.8295 26.7623 24.9664 26.4322 24.9668 26.088V23.8944C25.4258 23.8939 25.8659 23.7114 26.1904 23.3868C26.515 23.0622 26.6975 22.6222 26.6981 22.1632V16.1039C26.6975 15.6449 26.515 15.2049 26.1904 14.8803C25.8659 14.5558 25.4258 14.3732 24.9668 14.3727ZM7.98868 10.1553C8.05678 10.0024 8.16776 9.87241 8.30818 9.7812C8.44861 9.68998 8.61245 9.64142 8.7799 9.64138H20.3791C20.5465 9.64147 20.7103 9.69005 20.8507 9.78126C20.9911 9.87247 21.102 10.0024 21.1701 10.1553L23.0445 14.3726H6.1143L7.98868 10.1553ZM8.08741 25.6552H5.92338V23.8944H8.08741V25.6552ZM23.2356 25.6552H21.0716V23.8944H23.2356V25.6552ZM24.9668 22.1632H4.19216V16.1039H24.9668V22.1632Z" fill="#0984E3"/>
<path d="M5.92571 18.2972H10.2538V20.0284H5.92571V18.2972ZM18.9099 18.2972H23.2379V20.0284H18.9099V18.2972ZM14.5818 1.35059L1.59766 6.56389V8.42945L14.5818 3.21619L27.566 8.42945V6.56389L14.5818 1.35059Z" fill="#0984E3"/>
</svg>
