<?xml version="1.0" encoding="utf-8"?>
<!-- Generator: Adobe Illustrator 26.2.1, SVG Export Plug-In . SVG Version: 6.00 Build 0)  -->
<svg version="1.1" id="Layer_1" xmlns="http://www.w3.org/2000/svg" xmlns:xlink="http://www.w3.org/1999/xlink" x="0px" y="0px"
	 viewBox="0 0 64 64" style="enable-background:new 0 0 64 64;" xml:space="preserve">
<style type="text/css">
	.st0{fill:#0984E3;}
</style>
<g>
	<path class="st0" d="M45,13.5l-6.4-2.6c-0.1,0-0.2,0-0.3,0l-6.4,2.6c-0.2,0.1-0.3,0.2-0.3,0.4v4.8H19.1c-0.2,0-0.4,0.2-0.4,0.4
		s0.2,0.4,0.4,0.4h2.1v4.4h-2.1c-0.2,0-0.4,0.2-0.4,0.4v5.1c0,0.2,0.2,0.4,0.4,0.4h2.1v22.8c0,0.4,0.2,0.6,0.5,0.6h20.6
		c0.2,0,0.4-0.2,0.4-0.4V29.9h2.1c0.2,0,0.4-0.2,0.4-0.4V13.9C45.2,13.7,45.1,13.6,45,13.5z M27.2,19.6h4.3v4.3h-4.3V19.6z
		 M22.2,19.6h4.3v4.3h-4.3V19.6z M41.8,52.3h-9.4v-2.2c0-0.2-0.2-0.4-0.4-0.4c-0.1,0-0.2,0-0.3,0.1s-0.1,0.2-0.1,0.3v2.2h-9.4V29.9
		h19.6V52.3z M44.5,23.9h-12v-9.7l6-2.4l6,2.4V23.9z"/>
	<path class="st0" d="M26.8,35.1h10.3c0.2,0,0.4-0.2,0.4-0.4c0-0.2-0.2-0.4-0.4-0.4H26.8c-0.2,0-0.4,0.2-0.4,0.4
		C26.5,34.9,26.7,35.1,26.8,35.1z"/>
	<path class="st0" d="M26.8,40.2h10.3c0.2,0,0.4-0.2,0.4-0.4s-0.2-0.4-0.4-0.4H26.8c-0.2,0-0.4,0.2-0.4,0.4S26.7,40.2,26.8,40.2z"/>
	<path class="st0" d="M26.8,45.3h10.3c0.2,0,0.4-0.2,0.4-0.4c0-0.2-0.2-0.4-0.4-0.4H26.8c-0.2,0-0.4,0.2-0.4,0.4
		C26.5,45.1,26.7,45.3,26.8,45.3z"/>
	<path class="st0" d="M36.8,19.2c0,0.2,0.2,0.4,0.4,0.4h2.6c0.1,0,0.2,0,0.3-0.1c0.1-0.1,0.1-0.2,0.1-0.3c0-0.2-0.2-0.4-0.4-0.4
		h-2.6C37,18.8,36.8,19,36.8,19.2z"/>
</g>
</svg>
