<svg width="98" height="72" viewBox="0 0 98 72" fill="none" xmlns="http://www.w3.org/2000/svg">
<path d="M5.38614 0.693848H92.4049C95.0708 0.693848 97.2393 2.86233 97.2393 5.52822V66.7637C97.2393 69.4296 95.0708 71.5981 92.4049 71.5981H5.38614C2.72025 71.5981 0.551765 69.4296 0.551765 66.7637V42.8656C0.551765 42.8653 0.551765 42.8651 0.551765 42.8647V5.52822C0.551765 2.86233 2.72025 0.693848 5.38614 0.693848ZM92.4049 68.3751C93.2932 68.3751 94.0163 67.652 94.0163 66.7637V46.7722L79.0276 31.7828C78.4218 31.1691 77.3894 31.1612 76.7678 31.7908L60.8402 47.7036L81.5179 68.3751H92.4049ZM3.77474 66.7635C3.77474 67.6518 4.49783 68.3749 5.38614 68.3749H76.9598L29.0725 20.5025C28.4667 19.8888 27.4335 19.8808 26.8134 20.5104L3.77456 43.5338V66.7635H3.77474ZM3.77474 38.9766L24.5278 18.2381C26.3549 16.3889 29.5455 16.3969 31.3584 18.2302L58.5612 45.4252L74.4828 29.5184C76.3098 27.6693 79.5005 27.6765 81.3134 29.5114L94.0163 42.2149V5.52822C94.0163 4.63991 93.2932 3.91683 92.4049 3.91683H5.38614C4.49783 3.91683 3.77474 4.63991 3.77474 5.52822V38.9766Z" fill="#737678"/>
<path d="M56.9528 11.9741C62.2844 11.9741 66.6216 16.3113 66.6216 21.6429C66.6216 26.9745 62.2844 31.3116 56.9528 31.3116C51.6212 31.3116 47.2841 26.9745 47.2841 21.6429C47.2841 16.3113 51.621 11.9741 56.9528 11.9741ZM56.9528 28.0886C60.507 28.0886 63.3986 25.1969 63.3986 21.6429C63.3986 18.0888 60.507 15.1971 56.9528 15.1971C53.3986 15.1971 50.5071 18.0888 50.5071 21.6429C50.5071 25.1969 53.3986 28.0886 56.9528 28.0886Z" fill="#737678"/>
</svg>
