<svg xmlns="http://www.w3.org/2000/svg" viewBox="0 0 64 64"><path d="M46.51,51.06a.65.65,0,0,0,.65-.65V13.59a.65.65,0,0,0-.65-.65h-29a.65.65,0,0,0-.65.65V50.41a.65.65,0,0,0,.65.65ZM18.13,14.23H45.87V49.77H18.13Z" style="fill:#0984E3"/><path d="M25.12,31.19H38.88a.64.64,0,0,0,.64-.64V22.91a.64.64,0,0,0-.28-.54l-6.88-4.58a.63.63,0,0,0-.72,0l-6.87,4.58a.65.65,0,0,0-.29.54v7.64A.64.64,0,0,0,25.12,31.19Zm.65-7.93L32,19.1l6.23,4.16V29.9H34.94V26a.65.65,0,0,0-.65-.64H29.71a.65.65,0,0,0-.65.64V29.9H25.77Z" style="fill:#0984E3"/><path d="M23.3,39.83c-.64,0-1.11.34-1.11.65s.47.65,1.11.65H38.41c.63,0,1.11-.34,1.11-.65s-.48-.65-1.12-.65Z" style="fill:#0984E3"/><path d="M23.3,44.42c-.64,0-1.11.34-1.11.64s.47.65,1.11.65H38.41c.63,0,1.11-.34,1.11-.65s-.48-.64-1.12-.64Z" style="fill:#0984E3"/></svg>