<?xml version="1.0" encoding="utf-8"?>
<!-- Generator: Adobe Illustrator 26.0.1, SVG Export Plug-In . SVG Version: 6.00 Build 0)  -->
<svg version="1.1" id="Layer_1" xmlns="http://www.w3.org/2000/svg" xmlns:xlink="http://www.w3.org/1999/xlink" x="0px" y="0px"
	 viewBox="0 0 64 64" style="enable-background:new 0 0 64 64;" xml:space="preserve">
<style type="text/css">
	.st0{fill:#0984E3;}
</style>
<path class="st0" d="M22.6,34h-3.4c-0.4,0-0.8,0.1-1.1,0.4L8.5,43C8.2,43.2,8,43.6,8,44c0,0,0,0.1,0,0.1v4.6c0,0.4,0.2,0.8,0.5,1.1
	c0.3,0.3,0.7,0.5,1.1,0.4h44.8c0.4,0,0.8-0.1,1.1-0.4c0.3-0.3,0.5-0.7,0.5-1.1V44c0,0,0-0.1,0-0.1c0-0.4-0.2-0.8-0.5-1l-9.5-8.5
	C45.8,34.1,45.4,34,45,34C45,34,22.6,34,22.6,34z M39.9,35.5h4.9l9.5,8.5H9.6l9.6-8.5H39.9z M9.6,48.7v-3.1h44.8v3.1H9.6z"/>
</svg>
