<svg xmlns="http://www.w3.org/2000/svg" viewBox="0 0 64 64"><path d="M55,44v0a1.32,1.32,0,0,0-.37-.89l0,0L45.39,34.5a1.35,1.35,0,0,0-.89-.35H42.58V28.81l.34.12a1.26,1.26,0,0,0,.43.08h.11a1.3,1.3,0,0,0,.88-.45l1-1.2a1.34,1.34,0,0,0-.12-1.86l-2.66-2.37V17.65a1.3,1.3,0,0,0-1.29-1.3H39a1.3,1.3,0,0,0-1.3,1.3v1.07l-4.81-4.3a1.29,1.29,0,0,0-1.72,0L18.76,25.5a1.33,1.33,0,0,0-.13,1.85l1,1.2a1.25,1.25,0,0,0,.9.45,1.34,1.34,0,0,0,.52-.07l.33-.12v5.34h-1.8a1.29,1.29,0,0,0-.88.34L9.44,43a1.26,1.26,0,0,0-.39.88v4.72a1.24,1.24,0,0,0,.35.91,1.26,1.26,0,0,0,.88.39H53.68a1.37,1.37,0,0,0,.9-.35,1.2,1.2,0,0,0,.39-.89ZM38.71,17.4h2.83v4.79l-2.83-2.53ZM20.62,28.07l-1.34-1.62L32,15.05,44.73,26.49l-1.35,1.58-.19-.17L32.35,18.2a.52.52,0,0,0-.7,0Zm12.93,3h-3.1a2.08,2.08,0,0,0-2.08,2.07v6.44H23.48a1,1,0,0,1-1-1V27.83l.08-.08L32,19.29l9.54,8.54V38.55a1,1,0,0,1-1,1H35.62V33.13A2.07,2.07,0,0,0,33.55,31.06Zm20.38,17.8H10.07v-3.6H53.93ZM9.68,44.22l9.84-9h1.89v3.35a2.07,2.07,0,0,0,2.07,2.07h17a2.07,2.07,0,0,0,2.07-2.07V35.2h2l9.71,9Z" style="fill:#0984E3"/></svg>