<svg xmlns="http://www.w3.org/2000/svg" viewBox="0 0 64 64"><path d="M46.15,29.06h-.27V20.25a4,4,0,0,0-4-4H22.12a4,4,0,0,0-4,4v8.81h-.27a4,4,0,0,0-4,4V43a1,1,0,0,0,1,1h3.31V47.8a.5.5,0,0,0,.5.5.51.51,0,0,0,.5-.5V44H44.85V47.8a.5.5,0,0,0,1,0V44h3.3a1,1,0,0,0,1-1V33.06A4,4,0,0,0,46.15,29.06Zm-27-8.81a3,3,0,0,1,3-3H41.88a3,3,0,0,1,3,3v8.81H43.75v-.27a4,4,0,0,0-4-4H37.07a4,4,0,0,0-4,4v.27H30.94v-.27a3.57,3.57,0,0,0-.09-.8A4,4,0,0,0,27,24.8H24.15A4,4,0,0,0,20.34,28a3.56,3.56,0,0,0-.08.8v.27H19.12ZM49.15,43H14.85V33.06a3,3,0,0,1,3-3h.94a.88.88,0,0,0,.33.07H44.88a1,1,0,0,0,.34-.07h.93a3,3,0,0,1,3,3Z" style="fill:#0984E3"/></svg>