<svg id="Layer_1" data-name="Layer 1" xmlns="http://www.w3.org/2000/svg" viewBox="0 0 36 36"><defs><style>.cls-1{fill:#e85451;}</style></defs><path class="cls-1" d="M14.68,15.53h0a7.16,7.16,0,0,1,6.64,7.14v1.68a3.48,3.48,0,0,0-1.81.62,2.66,2.66,0,0,1-3,0,3.45,3.45,0,0,0-2-.62.51.51,0,0,0,0,1,2.5,2.5,0,0,1,1.52.47,3.37,3.37,0,0,0,2,.63h0a3.37,3.37,0,0,0,2-.63,2.49,2.49,0,0,1,1.51-.47,2.44,2.44,0,0,1,1.51.47,3.43,3.43,0,0,0,2.05.63,3.38,3.38,0,0,0,2.05-.63,2.68,2.68,0,0,1,3,0,3.65,3.65,0,0,0,4.1,0,3.26,3.26,0,0,1,.82-.39.5.5,0,0,0,.36-.62.51.51,0,0,0-.62-.37,4.19,4.19,0,0,0-1.1.51,2.66,2.66,0,0,1-3,0,3.5,3.5,0,0,0-2-.62,3.46,3.46,0,0,0-2,.56V22.66A12.55,12.55,0,0,0,16.45,10.3a.51.51,0,0,0-.6.41.52.52,0,0,0,.41.6,11.52,11.52,0,0,1,9.45,11.35v2.72a3.33,3.33,0,0,1-.59.05A2.49,2.49,0,0,1,23.61,25a3.79,3.79,0,0,0-1.26-.55V22.66a8.2,8.2,0,0,0-7.67-8.17V13.32a9.36,9.36,0,0,1,8.83,9.34v.55a.52.52,0,0,0,1,0v-.55a10.4,10.4,0,0,0-9.86-10.37V8.93A13.76,13.76,0,0,1,27.9,22.66a.51.51,0,0,0,1,0A14.75,14.75,0,0,0,14.68,7.91v0A1.07,1.07,0,0,0,13.62,6.8h-2.2a1.07,1.07,0,0,0-1.06,1.06v0H1a.51.51,0,1,0,0,1h9.35v.59a.52.52,0,0,0,1,0V7.86a0,0,0,0,1,0,0h2.2a0,0,0,0,1,0,0v7.67s0,0,0,0h-2.2s0,0,0,0V11.7a.52.52,0,0,0-1,0v2.77H1a.52.52,0,0,0,0,1h9.35v0a1.06,1.06,0,0,0,1.06,1.06h2.2A1.06,1.06,0,0,0,14.68,15.53Z"/><path class="cls-1" d="M35.48,27.56a.51.51,0,0,0-.62-.37,4.19,4.19,0,0,0-1.1.51,2.66,2.66,0,0,1-3,0,3.5,3.5,0,0,0-2-.62,3.45,3.45,0,0,0-2.05.62,2.68,2.68,0,0,1-3,0,3.45,3.45,0,0,0-2.05-.62,3.5,3.5,0,0,0-2,.62,2.66,2.66,0,0,1-3,0,3.45,3.45,0,0,0-2-.62.51.51,0,1,0,0,1,2.5,2.5,0,0,1,1.52.47,3.37,3.37,0,0,0,2,.63h0a3.37,3.37,0,0,0,2-.63,2.49,2.49,0,0,1,1.51-.47,2.44,2.44,0,0,1,1.51.47,3.43,3.43,0,0,0,2.05.63,3.38,3.38,0,0,0,2.05-.63,2.68,2.68,0,0,1,3,0,3.65,3.65,0,0,0,4.1,0,3.26,3.26,0,0,1,.82-.39A.5.5,0,0,0,35.48,27.56Z"/></svg>