<svg xmlns="http://www.w3.org/2000/svg" viewBox="0 0 64 64"><path d="M50.6,26,44.89,16a.45.45,0,0,0-.38-.22h-25a.43.43,0,0,0-.38.22L13.41,26a.43.43,0,0,0-.06.22,5,5,0,0,0,3,4.56l.3.13V47.78a.44.44,0,0,0,.44.44H46.91a.44.44,0,0,0,.44-.44V31.38l-.08-.4.37-.16a5,5,0,0,0,3-4.58h0A.46.46,0,0,0,50.6,26ZM19.73,16.67H44.26l5,8.83H14.72Zm21,9.7-.1.59a4.12,4.12,0,0,1-4,3.38,4.49,4.49,0,0,1-.73-.06A4.13,4.13,0,0,1,32.51,27l-.11-.58Zm-9.1,0-.1.59a4.13,4.13,0,0,1-4.05,3.38,3.61,3.61,0,0,1-.73-.07A4.12,4.12,0,0,1,23.4,27l-.11-.59ZM14.3,27l-.11-.59H22.5l-.1.59a4.06,4.06,0,0,1-1.71,2.64,4,4,0,0,1-2.33.74,3.64,3.64,0,0,1-.74-.07A4.12,4.12,0,0,1,14.3,27ZM46.47,46.84H46v.5H30.5V33.72h-9V47.35h-4V31.18l.53,0h.29A4.94,4.94,0,0,0,22.48,29l.42-.61.41.61a5,5,0,0,0,6.92,1.36A4.89,4.89,0,0,0,31.59,29l.42-.61.41.62a5,5,0,0,0,6.9,1.36A5.06,5.06,0,0,0,40.69,29l.41-.62.42.61a5,5,0,0,0,4.13,2.21h.82ZM49.7,27a4.13,4.13,0,0,1-4.05,3.38h0a4.1,4.1,0,0,1-4-3.38l-.1-.59h8.31Z" style="fill:#0984E3"/><rect x="23.15" y="18.94" width="6" height="6" style="fill:#0984E3"/></svg>