<svg xmlns="http://www.w3.org/2000/svg" viewBox="0 0 64 64"><path d="M48.3,15.22a.49.49,0,0,0-.5.49c0,.61-.87,1.31-2.39,1.91a.49.49,0,0,0,.33.92h0a7.8,7.8,0,0,0,2-1.11V33.8H46.29a11.71,11.71,0,0,1-5.61-7.16,17.91,17.91,0,0,1-.47-6.72,35.13,35.13,0,0,0,3.67-.76.5.5,0,0,0,.4-.57.49.49,0,0,0-.57-.4.19.19,0,0,0-.1,0A46.32,46.32,0,0,1,32,19.52a47.1,47.1,0,0,1-11.4-1.25c-3.25-.85-4.4-1.89-4.4-2.56a.5.5,0,0,0-1,0V48.3a.49.49,0,0,0,.49.49H48.3a.49.49,0,0,0,.49-.49V15.71A.49.49,0,0,0,48.3,15.22ZM46.57,34.79H47.8V44a3.21,3.21,0,0,0-2.27-.93H45ZM24.79,20.06a57.74,57.74,0,0,0,7.2.43,57.74,57.74,0,0,0,7.2-.43h0a18.42,18.42,0,0,0,.54,6.85,12.66,12.66,0,0,0,5.87,7.64l-1.1,5.79H24.39a.49.49,0,1,0,0,1H44.33L44,43.06H40.19a3.26,3.26,0,0,0-2.76,1.53,3.26,3.26,0,0,0-2.76-1.53H29.33a3.26,3.26,0,0,0-2.76,1.53,3.26,3.26,0,0,0-2.76-1.53H20l-.33-1.74h2.77a.49.49,0,0,0,0-1h-3l-1.1-5.79a12.67,12.67,0,0,0,5.88-7.64A18.63,18.63,0,0,0,24.79,20.06ZM16.2,17.42a11.83,11.83,0,0,0,4.15,1.8c1.14.29,2.28.52,3.44.7a17.51,17.51,0,0,1-.47,6.72,11.71,11.71,0,0,1-5.61,7.16H16.2Zm0,17.36h1.23L19,43.06h-.53A3.24,3.24,0,0,0,16.2,44Z" style="fill:#0984E3"/><path d="M43.31,20.65h0a.48.48,0,0,0-.4-.57.49.49,0,0,0-.57.4v0a19.92,19.92,0,0,0,0,4.5c.38,3.29,1.59,5.88,3.5,7.48a.49.49,0,0,0,.63-.75C42.31,28.25,43.3,20.74,43.31,20.65Z" style="fill:#0984E3"/><path d="M46.41,20.35a.5.5,0,0,0-.6.35c-.05.2-1.3,5.07,0,8.76a.48.48,0,0,0,.63.27.49.49,0,0,0,.29-.61c-1.21-3.4,0-8.12,0-8.17A.49.49,0,0,0,46.41,20.35Z" style="fill:#0984E3"/><path d="M32,18.28c5,0,9.13-.9,10.3-2.25a.5.5,0,0,0,0-.7.49.49,0,0,0-.69,0h0a6.68,6.68,0,0,1-3.27,1.33A30.89,30.89,0,0,1,32,17.3c-5.14,0-8.76-1-9.57-1.92a.49.49,0,0,0-.69,0,.5.5,0,0,0,0,.69C22.87,17.38,27,18.28,32,18.28Z" style="fill:#0984E3"/><path d="M18.16,32.49c1.91-1.6,3.12-4.19,3.5-7.48a19.92,19.92,0,0,0,0-4.5.5.5,0,0,0-.55-.44.49.49,0,0,0-.43.55v0c0,.07,1,7.59-3.16,11.09a.49.49,0,0,0,.64.75Z" style="fill:#0984E3"/><path d="M17.54,29.75h0a.48.48,0,0,0,.62-.29h0c1.32-3.69.07-8.54,0-8.75a.49.49,0,0,0-.62-.32.48.48,0,0,0-.33.57c0,.05,1.22,4.77,0,8.17A.49.49,0,0,0,17.54,29.75Z" style="fill:#0984E3"/></svg>