<svg width="48" height="48" viewBox="0 0 48 48" fill="none" xmlns="http://www.w3.org/2000/svg">
<path d="M45.5662 37.0929H40.5757V32.1025C40.5757 31.6613 40.4004 31.2382 40.0885 30.9262C39.7765 30.6142 39.3534 30.439 38.9122 30.439C38.471 30.439 38.0479 30.6142 37.7359 30.9262C37.424 31.2382 37.2487 31.6613 37.2487 32.1025V37.0929H32.2582C31.817 37.0929 31.3939 37.2682 31.082 37.5802C30.77 37.8921 30.5947 38.3152 30.5947 38.7564C30.5947 39.1976 30.77 39.6207 31.082 39.9327C31.3939 40.2447 31.817 40.4199 32.2582 40.4199H37.2487V45.4104C37.2487 45.8516 37.424 46.2747 37.7359 46.5867C38.0479 46.8986 38.471 47.0739 38.9122 47.0739C39.3534 47.0739 39.7765 46.8986 40.0885 46.5867C40.4004 46.2747 40.5757 45.8516 40.5757 45.4104V40.4199H45.5662C46.0073 40.4199 46.4305 40.2447 46.7424 39.9327C47.0544 39.6207 47.2296 39.1976 47.2296 38.7564C47.2296 38.3152 47.0544 37.8921 46.7424 37.5802C46.4305 37.2682 46.0073 37.0929 45.5662 37.0929Z" fill="#737678"/>
<path d="M25.6047 37.0929H5.64282C5.20163 37.0929 4.77852 36.9177 4.46655 36.6057C4.15459 36.2937 3.97933 35.8706 3.97933 35.4294V31.121L10.6333 24.467L14.4427 28.293C14.5973 28.449 14.7813 28.5727 14.984 28.6572C15.1867 28.7416 15.4042 28.7851 15.6238 28.7851C15.8434 28.7851 16.0608 28.7416 16.2635 28.6572C16.4662 28.5727 16.6502 28.449 16.8049 28.293L25.6047 19.4765L32.7411 26.6296C33.0543 26.9428 33.4792 27.1188 33.9222 27.1188C34.3652 27.1188 34.79 26.9428 35.1033 26.6296C35.4165 26.3163 35.5925 25.8915 35.5925 25.4485C35.5925 25.0055 35.4165 24.5806 35.1033 24.2674L26.7858 15.9499C26.6312 15.794 26.4472 15.6703 26.2445 15.5858C26.0418 15.5014 25.8243 15.4579 25.6047 15.4579C25.3851 15.4579 25.1677 15.5014 24.965 15.5858C24.7623 15.6703 24.5783 15.794 24.4236 15.9499L15.6238 24.7664L11.8144 20.9404C11.6597 20.7845 11.4757 20.6607 11.273 20.5763C11.0703 20.4918 10.8529 20.4484 10.6333 20.4484C10.4137 20.4484 10.1963 20.4918 9.99356 20.5763C9.79084 20.6607 9.60686 20.7845 9.45222 20.9404L3.97933 26.4299V5.48657C3.97933 5.04538 4.15459 4.62227 4.46655 4.3103C4.77852 3.99834 5.20163 3.82308 5.64282 3.82308H35.5857C36.0269 3.82308 36.45 3.99834 36.7619 4.3103C37.0739 4.62227 37.2492 5.04538 37.2492 5.48657V25.4485C37.2492 25.8897 37.4244 26.3128 37.7364 26.6247C38.0484 26.9367 38.4715 27.112 38.9127 27.112C39.3538 27.112 39.777 26.9367 40.0889 26.6247C40.4009 26.3128 40.5762 25.8897 40.5762 25.4485V5.48657C40.5762 4.16301 40.0504 2.89367 39.1145 1.95777C38.1786 1.02187 36.9092 0.496094 35.5857 0.496094H5.64282C4.31926 0.496094 3.04992 1.02187 2.11402 1.95777C1.17812 2.89367 0.652344 4.16301 0.652344 5.48657V35.4294C0.652344 36.753 1.17812 38.0223 2.11402 38.9582C3.04992 39.8941 4.31926 40.4199 5.64282 40.4199H25.6047C26.0459 40.4199 26.469 40.2446 26.781 39.9327C27.093 39.6207 27.2682 39.1976 27.2682 38.7564C27.2682 38.3152 27.093 37.8921 26.781 37.5801C26.469 37.2682 26.0459 37.0929 25.6047 37.0929Z" fill="#737678"/>
<path d="M10.6338 12.1409C10.6338 13.1279 10.9265 14.0927 11.4748 14.9134C12.0232 15.7341 12.8026 16.3737 13.7145 16.7515C14.6264 17.1292 15.6298 17.228 16.5979 17.0355C17.5659 16.8429 18.4551 16.3676 19.1531 15.6697C19.851 14.9717 20.3263 14.0825 20.5189 13.1145C20.7114 12.1464 20.6126 11.143 20.2349 10.2311C19.8571 9.3192 19.2175 8.5398 18.3968 7.99144C17.5761 7.44308 16.6113 7.15039 15.6243 7.15039C14.3007 7.15039 13.0314 7.67617 12.0955 8.61207C11.1596 9.54796 10.6338 10.8173 10.6338 12.1409ZM17.2878 12.1409C17.2878 12.4699 17.1902 12.7915 17.0074 13.0651C16.8246 13.3386 16.5648 13.5518 16.2609 13.6777C15.9569 13.8036 15.6224 13.8366 15.2997 13.7724C14.977 13.7082 14.6806 13.5498 14.448 13.3171C14.2154 13.0845 14.0569 12.7881 13.9927 12.4654C13.9286 12.1427 13.9615 11.8082 14.0874 11.5043C14.2133 11.2003 14.4265 10.9405 14.7001 10.7577C14.9736 10.5749 15.2953 10.4774 15.6243 10.4774C16.0655 10.4774 16.4886 10.6526 16.8005 10.9646C17.1125 11.2766 17.2878 11.6997 17.2878 12.1409Z" fill="#737678"/>
</svg>
