<svg xmlns="http://www.w3.org/2000/svg" viewBox="0 0 64 64"><path d="M50.65,25,32.44,13.13a.79.79,0,0,0-.86,0L13.37,25a.79.79,0,0,0,.86,1.33l1.94-1.27V48.62A2.39,2.39,0,0,0,18.55,51H45.47a2.37,2.37,0,0,0,2.37-2.38V25.06a4.91,4.91,0,0,1,.62.4h0a6.54,6.54,0,0,0,1.7,1h0a.75.75,0,0,0,.62-.34A.79.79,0,0,0,50.65,25ZM40.72,49.42H39.13v0h-.61V45h-3V40h-7v5h-3v4.39h-.64v0H23.3V35.17H40.72Zm5.54-.8a.8.8,0,0,1-.8.8H42.3V34.37a.8.8,0,0,0-.79-.79h-19a.79.79,0,0,0-.79.79V49.42H18.55a.79.79,0,0,1-.79-.8V24L32,14.74,46.26,24Z" style="fill:#0984E3"/></svg>