<svg id="Layer_1" data-name="Layer 1" xmlns="http://www.w3.org/2000/svg" viewBox="0 0 36 36"><defs><style>.cls-1{fill:#e85451;}</style></defs><path class="cls-1" d="M21.27,4.34c-.82-1.18-1.54-2.28-2.22-3.28a1.49,1.49,0,0,0-.38-.37,1.29,1.29,0,0,0-.94-.16,1.27,1.27,0,0,0-.79.54c-.63,1-1.34,2.05-2.21,3.28C10.93,9.87,5.26,18.2,5.26,23A12.48,12.48,0,0,0,9,31.84a12.8,12.8,0,0,0,18-.05,12.61,12.61,0,0,0,3.76-8.89C30.73,18.15,25.06,9.86,21.27,4.34Zm4,25.74A10.24,10.24,0,0,1,18,33a10.46,10.46,0,0,1-7.25-3,10,10,0,0,1-3-7.18c0-4,5.43-11.94,9-17.22.43-.63.81-1.25,1.2-1.76.38.52.77,1.14,1.2,1.76,3.6,5.33,9,13.22,9,17.22A10.18,10.18,0,0,1,25.25,30.08Z"/><path class="cls-1" d="M25.45,22a1.24,1.24,0,0,0-.89.3,1.25,1.25,0,0,0-.41.84,6,6,0,0,1-.92,2.91A5.7,5.7,0,0,1,21,28.18a1.26,1.26,0,0,0-.37.32,1.22,1.22,0,0,0-.22.44,1.24,1.24,0,0,0,.12,1,1.27,1.27,0,0,0,.77.59,1.29,1.29,0,0,0,1-.12,8.31,8.31,0,0,0,3.08-2.95,8.05,8.05,0,0,0,1.26-4.09,1.15,1.15,0,0,0-.07-.48,1.3,1.3,0,0,0-.24-.41,1.37,1.37,0,0,0-.39-.29A1.29,1.29,0,0,0,25.45,22Z"/></svg>